<?xml version="1.0" encoding="UTF-8"?>
<svg width="67px" height="70px" viewBox="0 0 67 70" version="1.1" xmlns="http://www.w3.org/2000/svg" xmlns:xlink="http://www.w3.org/1999/xlink">
    <!-- Generator: Sketch 47.1 (45422) - http://www.bohemiancoding.com/sketch -->
    <title>highrisk-ico</title>
    <desc>Created with Sketch.</desc>
    <defs></defs>
    <g id="Page-1" stroke="none" stroke-width="1" fill="none" fill-rule="evenodd">
        <g id="Home-Hover" transform="translate(-686.000000, -506.000000)" fill-rule="nonzero" fill="#4EC097">
            <g id="highrisk-ico" transform="translate(686.000000, 506.000000)">
                <path d="M14.0099692,19.172199 C14.0107207,19.1744903 14.0107207,19.1767816 14.0107207,19.1790729 C14.0129752,19.1897657 14.0182356,19.1989309 14.0212415,19.2088599 C14.0249989,19.2195526 14.0265019,19.2302454 14.0310108,19.2401744 C14.0317623,19.2417019 14.0332653,19.2432295 14.0340168,19.2455208 C14.0475435,19.2760715 14.0655792,19.3050947 14.0866208,19.3310628 C14.0926327,19.3379367 14.0986446,19.3448106 14.1046565,19.3516845 C14.1226922,19.3707787 14.1422308,19.3883454 14.1632724,19.4043845 C14.1692843,19.4089671 14.1752962,19.4143135 14.1820596,19.4181323 C14.1850656,19.4196598 14.18732,19.4227149 14.190326,19.4242425 L21.7262323,23.9442211 C21.7863512,23.9801182 21.8532335,23.9984486 21.9208673,23.9992124 C21.935897,23.9992124 21.9501752,23.9953935 21.965205,23.993866 C21.9802347,23.9953935 21.9945129,23.9999761 22.0095427,23.9999761 C22.0771765,24.0007399 22.1440587,23.9831732 22.2049291,23.9480399 L29.8047118,19.5395714 C29.8948902,19.4868714 29.961021,19.3998019 29.987323,19.297457 C30.013625,19.1951121 29.9985953,19.086657 29.9459913,18.9957686 L22.4694524,6.19272682 C22.3943037,6.06365004 22.2545273,5.99643846 22.1109933,6.00560368 C21.9561871,5.9788718 21.7991265,6.04913845 21.7157115,6.18738044 L14.0565614,18.8773846 C14.051301,18.8857861 14.048295,18.8949513 14.0437861,18.9041165 C14.0370227,18.9171005 14.0302593,18.9300846 14.0249989,18.9438324 C14.0212415,18.9545252 14.018987,18.9652179 14.0159811,18.9766744 C14.0122237,18.9904223 14.0077147,19.0041701 14.0054603,19.0186817 C14.0039573,19.0293744 14.0032058,19.040831 14.0024543,19.0515237 C14.0009514,19.0660353 13.9994484,19.0805469 14.0001999,19.0958222 C14.0001999,19.1072788 14.0024543,19.1187353 14.0039573,19.129428 C14.0054603,19.1431759 14.0069633,19.1576874 14.0099692,19.172199 Z M22.5137901,7.81344237 L28.683494,18.3794079 L22.4589316,15.5320811 L22.5137901,7.81344237 Z M22.4521682,16.3936113 L28.7188139,19.2600323 L22.405576,22.9222996 L22.4521682,16.3936113 Z M21.6488292,7.80656846 L21.5932192,15.4854912 L15.3603904,18.2258906 L21.6488292,7.80656846 Z M21.5872073,16.3477852 L21.5398636,22.9161894 L15.2416555,19.1378295 L21.5872073,16.3477852 Z" id="Shape"></path>
                <path d="M21.9639578,32.9999924 C22.0864475,33.0007823 22.2059312,32.9399581 22.2810782,32.8317384 L29.9257846,21.7641016 C30.0339963,21.6076965 30.0227242,21.3936268 29.8994831,21.2506505 C29.776242,21.1076741 29.5740965,21.0744972 29.4162878,21.1724479 L21.970721,25.7476925 L14.5890293,21.0586987 C14.431972,20.9591682 14.2298265,20.9883954 14.104331,21.129792 C13.9788355,21.2711885 13.965309,21.4852581 14.0705148,21.6432431 L21.5611698,32.8262089 C21.6348139,32.9360085 21.7527947,32.9984126 21.8760358,32.9992025 C21.8910652,32.9992025 21.9053431,32.993673 21.9203725,32.9920932 C21.9346505,32.9944629 21.9489284,32.9999924 21.9639578,32.9999924 Z M22.3975561,26.4301876 L28.2109296,22.8581475 L22.36374,31.3237719 L22.3975561,26.4301876 Z M21.4987978,31.3166626 L15.7695889,22.7625666 L21.5326139,26.4238682 L21.4987978,31.3166626 Z" id="Shape"></path>
                <path d="M27.0472528,52.1847914 C26.5479992,51.5681327 25.8189305,51.0692628 24.8766884,50.6981897 C25.3672248,50.3240373 25.7507784,49.8798275 26.0218018,49.372489 C26.3712793,48.7196469 26.5337348,47.9651831 26.5052061,47.1321934 C26.4465636,45.4500471 25.7880243,44.170538 24.5470225,43.3290799 C23.6317242,42.7085719 22.3978546,42.3398085 20.8763198,42.2297184 L20.8121301,40.3866711 C20.8042054,40.1664908 20.6140136,39.9932721 20.3865758,40.0002008 L18.2667292,40.0694883 C18.0400839,40.0771869 17.861779,40.2619536 17.8689112,40.4829037 L17.9299311,42.2451156 L17.1723336,42.2697511 L17.1113137,40.5075392 C17.103389,40.287359 16.9131972,40.1141403 16.6857594,40.121069 L14.5659128,40.1903565 C14.3392675,40.1980551 14.1609627,40.3828218 14.1680949,40.6037719 L14.2291147,42.3659838 L12.1393818,42.4345014 C11.3825767,42.459137 10.8452848,42.6323557 10.4958073,42.9633959 C10.1447448,43.2967458 9.9791194,43.8025445 10.0021009,44.4677044 C10.0234975,45.0859028 10.2089346,45.5632166 10.5536573,45.8873281 C10.8975875,46.2114396 11.3809918,46.3669516 11.9911907,46.3500146 L12.3644422,57.117291 C11.7558282,57.1403869 11.2851034,57.3243836 10.9641547,57.6638924 C10.641621,58.0049408 10.4886751,58.4868738 10.5100716,59.095064 C10.5338456,59.7702321 10.7319621,60.2667925 11.0996664,60.5716575 C11.4649932,60.8742129 12.0157571,61.0089385 12.7828642,60.9835331 L14.8725972,60.9150155 L14.9312396,62.6133289 C14.9391643,62.8335092 15.1293562,63.0067279 15.3567939,62.9997992 L17.4766405,62.9305117 C17.7032858,62.9228131 17.8815907,62.7380464 17.8744585,62.5170963 L17.815816,60.8187829 L18.5734135,60.7941473 L18.632056,62.4924608 C18.6399807,62.712641 18.8301725,62.8858597 19.0576103,62.8781611 L21.1774569,62.8088736 C21.4041022,62.801175 21.5824071,62.6164084 21.5752749,62.3954583 L21.5158399,60.6917558 C22.3938923,60.6440244 23.100772,60.5578 23.6198372,60.4338524 C24.2617347,60.28065 24.8481596,60.0435328 25.3616776,59.7294295 C26.2365601,59.1928364 26.9093637,58.5091998 27.3626543,57.6969964 C27.8167373,56.8832533 28.0299107,55.9809761 27.9966271,55.0148005 C27.9577963,53.8661679 27.6384325,52.9146196 27.0472528,52.1847914 Z M16.4147361,46.1144371 L18.7239821,46.0389908 C19.7240742,46.0058867 20.451558,46.120596 20.8850369,46.3784995 C21.2860248,46.6171564 21.490481,47.0067061 21.5102926,47.5702444 C21.5308968,48.1668867 21.3335727,48.5818418 20.907226,48.8389753 C20.4365012,49.1222842 19.577468,49.2862646 18.353108,49.3262974 L16.5288512,49.3863465 L16.4147361,46.1144371 Z M22.1997381,56.3882326 L22.1997381,56.3882326 C21.5800297,56.7392893 20.4539354,56.9440723 18.853154,56.9964228 L16.7943273,57.0641706 L16.6532683,52.9885263 L18.8682109,52.9161594 C20.4246142,52.8653485 21.5237646,52.9962249 22.1347559,53.3049392 C22.6997842,53.5905576 22.9866569,54.0894276 23.0128082,54.8277243 C23.0373747,55.5537033 22.7718986,56.064891 22.1997381,56.3882326 Z" id="Shape"></path>
                <path d="M66.6611245,35.7477275 C64.7001146,25.5447437 54.7572724,18.8310117 44.4983643,20.7819578 C43.4980079,20.9724073 42.5326834,21.2402753 41.6047263,21.5747232 C41.7292843,20.7254423 41.8016836,19.8583551 41.80869,18.9757842 C41.8849818,8.58854448 33.4485129,0.0763807212 23.0043248,0.000510593978 C12.5593581,-0.0753595332 3.99988823,8.31370882 3.92359646,18.7009486 C3.87844418,24.8797188 6.84525999,30.3942384 11.4546844,33.8649096 C4.50901905,36.8486185 -0.259216812,43.8333153 0.0109183456,51.7958077 C0.36279469,62.1776282 9.14257657,70.3390862 19.5813153,69.9891546 C29.3458838,69.6616743 37.1564488,62.001114 37.8368469,52.5157998 C37.8446317,53.3883062 37.8477457,54.2608127 37.8399608,55.132545 C41.7829999,57.6478719 46.6594455,58.7301825 51.6121829,57.7879994 C61.871091,55.8378275 68.6221345,45.949937 66.6611245,35.7477275 Z M6.15785554,18.7172065 C6.22480547,9.55550151 13.7745771,2.15584155 22.9879765,2.22242146 C32.2005974,2.28900137 39.6413808,9.79704722 39.5744309,18.9587522 C39.507481,28.1204571 31.9577093,35.5201171 22.7450884,35.4535372 C13.531689,35.3877315 6.09090562,27.8796856 6.15785554,18.7172065 Z M19.505802,67.7672437 C10.297852,68.0761435 2.55423697,60.8769975 2.24362046,51.7207118 C1.98749808,44.1600214 6.87873496,37.5949328 13.7753556,35.3614092 C16.4362258,36.8153285 19.4847828,37.6529967 22.7279617,37.6762222 C24.4577609,37.6886092 26.1338445,37.4648697 27.7297438,37.0421647 C32.3134781,39.8718108 35.4461118,44.8474976 35.6415121,50.6004661 C35.9521286,59.757526 28.713752,67.4591181 19.505802,67.7672437 Z M51.1925782,55.6047978 C46.3060122,56.5338198 41.5027444,55.2308665 37.8438532,52.4213492 C37.8858916,51.7965819 37.8967904,51.1640728 37.8757712,50.5253702 C37.6756999,44.6253065 34.7493655,39.4491058 30.3477972,36.1394651 C35.4531182,33.9477474 39.4054991,29.5852151 41.0169682,24.2193391 C42.2353012,23.6549582 43.5400462,23.2260597 44.9187475,22.963611 C53.9678861,21.243372 62.7375476,27.1651129 64.4673468,36.164239 C66.1963675,45.1641393 60.2417167,53.8845588 51.1925782,55.6047978 Z" id="Shape"></path>
                <path d="M56.853896,42.9063136 C56.7490635,42.8108508 56.6039692,42.7696109 56.4649522,42.7963405 L47.4303668,44.5322354 L47.7744908,40.1065815 L50.3527623,38.5043345 C50.5107707,38.4058169 50.5935732,38.2164187 50.558629,38.0331302 L50.1742432,36.010847 C50.1468956,35.8665073 50.0504193,35.7435512 49.9159603,35.6824551 C49.7815012,35.6213589 49.6295701,35.6297596 49.4989093,35.7061298 L48.0479669,36.5767503 L48.5987173,29.4888307 C48.6093524,29.3475458 48.5538976,29.2085521 48.4521037,29.1176715 C48.3480309,29.0222087 48.2029366,28.9817325 48.0639196,29.0076984 L42.2844589,30.1181213 C42.0801115,30.1578338 41.9296997,30.3304305 41.9190645,30.5381575 L41.3599579,40.590005 L39.2192481,41.8737883 C39.0574414,41.9715422 38.97236,42.1624677 39.0080638,42.348811 L39.4296727,44.5673657 C39.45778,44.7147602 39.5557756,44.8377163 39.689475,44.8965213 C39.8254534,44.9583812 39.98726,44.9469257 40.1103243,44.8682644 L41.1571298,44.2175901 L40.8623834,49.5215015 C40.8547869,49.661259 40.9110014,49.7949068 41.0173532,49.8888422 C41.1229453,49.9804865 41.2612027,50.0179079 41.3979407,49.991942 L56.2811156,47.1318775 C56.4763471,47.0944561 56.6259993,46.9302601 56.6449907,46.7324613 L56.9974709,43.2866372 C57.012664,43.1445886 56.9587285,43.00254 56.853896,42.9063136 L56.853896,42.9063136 Z" id="Shape"></path>
            </g>
        </g>
    </g>
</svg>