<?xml version="1.0" encoding="UTF-8"?>
<svg width="283px" height="59px" viewBox="0 0 283 59" version="1.1" xmlns="http://www.w3.org/2000/svg" xmlns:xlink="http://www.w3.org/1999/xlink">
    <!-- Generator: Sketch 47.1 (45422) - http://www.bohemiancoding.com/sketch -->
    <title>logo</title>
    <desc>Created with Sketch.</desc>
    <defs></defs>
    <g id="Page-1" stroke="none" stroke-width="1" fill="none" fill-rule="evenodd">
        <g id="Home" transform="translate(-88.000000, -31.000000)" fill="#FFFFFF">
            <g id="logo" transform="translate(88.000000, 31.000000)">
                <g id="Group-2">
                    <path d="M58.445913,46.8656667 L56.6682174,44.1969855 L55.8601739,44.733971 C53.6754638,46.1910145 51.1606957,46.999058 48.5484493,47.1093623 C47.5463043,42.5227536 42.3628551,39.1195652 35.9130435,39.1195652 C31.0767536,39.1195652 26.9518841,41.0366377 24.7637536,43.9293478 L18.6782029,43.9293478 C16.6875942,43.9293478 15.0706522,42.3124058 15.0706522,40.3217971 C15.0706522,38.3311884 16.6875942,36.7151014 18.6782029,36.7151014 L40.3217971,36.7151014 C50.2688551,36.7151014 58.3586957,28.6252609 58.3586957,18.6782029 C58.3586957,8.73114493 50.2688551,0.641304348 40.3217971,0.641304348 L33.5085797,0.641304348 C19.0518696,0.641304348 6.69692754,5.41431884 6.1796087,5.61782609 L0.457463768,7.8564058 L6.1796087,10.0941304 C6.69692754,10.2976377 19.0518696,15.0706522 33.5085797,15.0706522 L40.3217971,15.0706522 C42.3124058,15.0706522 43.9293478,16.6875942 43.9293478,18.6782029 C43.9293478,20.6688116 42.3124058,22.2848986 40.3217971,22.2848986 L18.6782029,22.2848986 C8.73114493,22.2848986 0.641304348,30.3747391 0.641304348,40.3217971 C0.641304348,50.2688551 8.73114493,58.3586957 18.6782029,58.3586957 L35.9130435,58.3586957 C42.3628551,58.3586957 47.5463043,54.9555072 48.5484493,50.3654783 C51.1606957,50.4757826 53.6754638,51.2872464 55.8601739,52.7408696 L56.6682174,53.2787101 L58.445913,50.610029 L57.6370145,50.0721884 C56.876,49.5642754 56.0773623,49.1162174 55.2556377,48.7391304 C56.0773623,48.3586232 56.876,47.9139855 57.6370145,47.4060725 L58.445913,46.8656667 Z M18.6782029,53.548913 C11.3827246,53.548913 5.45108696,47.6172754 5.45108696,40.3217971 C5.45108696,33.0271739 11.3827246,27.0955362 18.6782029,27.0955362 L40.3217971,27.0955362 C44.9648406,27.0955362 48.7391304,23.3203913 48.7391304,18.6782029 C48.7391304,14.0351594 44.9648406,10.2608696 40.3217971,10.2608696 L33.5085797,10.2608696 C26.5576957,10.2608696 20.0172464,9.04495652 15.2946812,7.8564058 C20.0206667,6.667 26.5576957,5.45108696 33.5085797,5.45108696 L40.3217971,5.45108696 C47.6172754,5.45108696 53.548913,11.3827246 53.548913,18.6782029 C53.548913,25.9728261 47.6172754,31.9044638 40.3217971,31.9044638 L18.6782029,31.9044638 C14.0351594,31.9044638 10.2608696,35.6796087 10.2608696,40.3217971 C10.2608696,44.9648406 14.0351594,48.7391304 18.6782029,48.7391304 L23.0869565,48.7391304 C23.0869565,50.5057101 23.7017536,52.1397536 24.7637536,53.548913 L18.6782029,53.548913 Z M35.9130435,53.548913 C31.6411014,53.548913 27.8967391,51.3009275 27.8967391,48.7391304 C27.8967391,46.1773333 31.6411014,43.9293478 35.9130435,43.9293478 C40.1849855,43.9293478 43.9293478,46.1773333 43.9293478,48.7391304 C43.9293478,51.3009275 40.1849855,53.548913 35.9130435,53.548913 Z" id="Fill-1"></path>
                    <polygon id="Fill-2" points="35.9130435 49.4035217 33.6453913 47.1358696 35.9130435 44.8682174 38.1806957 47.1358696"></polygon>
                </g>
                <text id="CONSULTIO—-CONSULTIO" font-family="Phosphate-Inline, Phosphate" font-size="27" font-weight="normal" line-spacing="24" letter-spacing="5.59285736">
                    <tspan x="67" y="30">CONSULTIO—</tspan>
                    <tspan x="67" y="54">CONSULTIOUS</tspan>
                </text>
            </g>
        </g>
    </g>
</svg>