<?xml version="1.0" encoding="UTF-8"?>
<svg width="75px" height="61px" viewBox="0 0 75 61" version="1.1" xmlns="http://www.w3.org/2000/svg" xmlns:xlink="http://www.w3.org/1999/xlink">
    <!-- Generator: Sketch 47.1 (45422) - http://www.bohemiancoding.com/sketch -->
    <title>mediumrisk-ico</title>
    <desc>Created with Sketch.</desc>
    <defs></defs>
    <g id="Page-1" stroke="none" stroke-width="1" fill="none" fill-rule="evenodd">
        <g id="Home" transform="translate(-406.000000, -514.000000)" fill-rule="nonzero" fill="#28B6A6">
            <g id="mediumrisk-ico" transform="translate(406.000000, 514.000000)">
                <path d="M53.5381524,23.6808682 C51.5499237,20.6647956 46.9090922,22.2012481 43.5367757,24.4343996 C40.4781766,26.4617744 38.4442956,29.7747523 37.6556063,34.0127324 C36.2851148,41.3696733 37.0359197,45.5772805 40.1663888,48.0818511 C41.0395795,48.7805068 41.8593501,49 42.5431388,49 C42.924857,49 43.2638371,48.9314077 43.5474578,48.8412625 C45.3511481,48.2621516 46.5361165,46.2308636 46.8916071,45.0079728 C47.0402105,44.4954975 47.2247589,43.7155064 47.4433027,42.7875644 C47.9056334,40.8287818 48.5379514,38.1448941 49.3217771,36.0450037 C49.8210174,34.7074648 50.4737248,33.4542011 51.1652913,32.1274387 C51.409088,31.6580794 51.6538496,31.1887101 51.8908433,30.7164109 C52.0588812,30.3803128 52.2424549,30.0442148 52.4269933,29.7071334 C53.0583366,28.546955 53.7120087,27.3475838 53.9441488,25.9502725 C54.0888733,25.0742562 53.9519166,24.3109316 53.5381524,23.6818515 L53.5381524,23.6808682 L53.5381524,23.6808682 Z M51.9821477,25.6200543 C51.8063419,26.679301 51.2604747,27.6807419 50.683536,28.7399986 C50.4883057,29.098633 50.2950247,29.4543274 50.11533,29.8110051 C49.88319,30.2735112 49.6442568,30.7340506 49.404349,31.1936167 C48.8011727,32.3518385 48.1863498,33.549253 47.6764274,34.8044732 C47.2548854,34.4380023 46.5992638,33.9774529 45.5716413,33.401282 C45.0898761,33.1298529 44.4847704,33.3072134 44.2186349,33.7902992 C43.9515346,34.2753416 44.1244163,34.8858086 44.604242,35.1552711 C45.4463513,35.6275703 46.3273099,36.2302008 46.5633388,36.4908434 C46.6361834,36.6770238 46.7614833,36.8308647 46.9178646,36.9415896 C46.809075,37.2894475 46.7032096,37.6412286 46.6021979,37.9959397 C45.5969141,37.7989828 43.9632013,37.5569533 43.5727405,37.5001208 C43.0229943,37.4138888 42.5237441,37.7999661 42.4460458,38.3486941 C42.3673728,38.8974322 42.7442274,39.4059842 43.2871804,39.4853529 C44.0914054,39.6029411 45.3230108,39.7949914 46.0844977,39.9380558 C45.8708175,40.7885958 45.6775266,41.6038563 45.5085239,42.3230816 C45.2996973,43.208891 45.1248662,43.9536026 44.9820812,44.4425583 C44.7460622,45.2578188 43.9340594,46.6110308 42.9443114,46.9285159 C42.7646266,46.9863316 42.2187594,47.1617255 41.4019029,46.5101091 C39.6594105,45.1147644 38.0830066,42.5837242 39.6098694,34.3831065 C40.0896851,31.8099436 41.3484829,28.2862923 44.6285301,26.1119399 C46.1864842,25.0801261 48.4661014,24.0061797 50.1231178,24.0061797 C50.8826653,24.0061797 51.5120592,24.2315528 51.8811559,24.7910673 C52.0074007,24.9831377 52.0413961,25.2624033 51.9821477,25.6200543 Z" id="Shape"></path>
                <path d="M54.0345759,50.8814651 C54.1998972,50.9621035 54.386379,51 54.5900062,51 C57.3570523,51 63.3699734,44.0044601 64.0645064,42.842422 C67.1732812,37.6346262 68.450454,33.7997123 67.8597525,31.4435797 C67.7468477,30.993726 67.6460508,30.533187 67.5452437,30.0794531 C67.0845717,27.9924467 66.6491066,26.02107 65.2237475,25.2787592 C64.5382877,24.9231545 63.7510092,24.9076039 62.8790675,25.2330923 C62.860921,25.2408627 62.8417732,25.2476679 62.8236266,25.2564133 C62.4718235,25.4108947 59.3590127,26.8401289 58.4316302,29.2195825 C58.2370763,29.7199582 57.8943464,30.4758695 57.4871024,31.3775169 C56.1302934,34.3778212 54.2734948,38.4857614 54.0497083,41.0789739 C53.9640233,42.0729201 53.7483087,43.2796501 53.5406559,44.4475185 C52.950935,47.7519404 52.5245329,50.1401393 54.0345759,50.8814651 Z M55.5748424,44.7846575 C55.7905569,43.5750123 56.0133319,42.3245555 56.1060774,41.2441407 C56.2088974,40.0539264 56.7723894,38.3584812 57.4588607,36.6241743 C58.3650826,36.4113905 60.7813372,36.0897921 62.3578967,36.8855401 C62.5101087,36.9622983 62.6744184,36.9992198 62.8357037,36.9992198 C63.2076662,36.9992198 63.5665298,36.8058668 63.7509988,36.4658127 C64.0161157,35.9800125 63.8205502,35.3785926 63.3155235,35.123057 C61.6956104,34.3039981 59.7007207,34.3214888 58.3570106,34.4662498 C58.7128498,33.6471909 59.0666658,32.8640784 59.3791515,32.1722998 C59.804542,31.2317908 60.1603811,30.4418731 60.3650096,29.9191514 C60.8912073,28.5686254 62.8901329,27.424078 63.6552289,27.0781837 C63.921347,26.9819947 64.1199369,26.9664541 64.2419047,27.0296017 C64.8285805,27.3346843 65.2317885,29.160325 65.526138,30.4943353 C65.6299696,30.9655598 65.7358037,31.4435896 65.8537458,31.910934 C66.1128138,32.948607 65.9938601,35.6195426 62.2742245,41.8494608 C61.1381673,43.7528346 56.722987,48.0006806 55.0647681,48.8858123 C55.0022875,47.9948404 55.3520675,46.0331742 55.5748424,44.7846575 Z" id="Shape"></path>
                <path d="M57.2475382,55.0323469 C57.6131426,54.8491511 57.9709499,54.6364043 58.3277789,54.4207025 L58.8220801,54.9614246 C59.0190239,55.1761381 59.2861514,55.2854666 59.5552456,55.2854666 C59.7980035,55.2854666 60.0407714,55.1968237 60.2328333,55.0175714 C60.6374331,54.6403478 60.6627811,54.0021075 60.2884012,53.5923778 L59.9978625,53.2752345 C60.2338017,53.0910503 60.4619338,52.8921007 60.6910542,52.693141 L61.032289,53.136355 C61.2292328,53.3924398 61.5236651,53.5263874 61.8220009,53.5263874 C62.0355172,53.5263874 62.2509803,53.4574419 62.4332883,53.314629 C62.8690865,52.9728565 62.9480557,52.3395481 62.609756,51.8992891 L62.1408028,51.2886331 C62.3494372,51.0650543 62.5629536,50.8523075 62.7637909,50.6149417 L63.407255,51.3733324 C63.6041988,51.6057764 63.8840053,51.7249485 64.1647902,51.7249485 C64.3948791,51.7249485 64.6259364,51.645171 64.8150831,51.4816725 C65.2333402,51.1192142 65.2811111,50.4829608 64.9223254,50.059434 L64.0419437,49.022306 C64.3753714,48.5928791 64.6951617,48.1624637 65.0061665,47.7320484 L65.5706615,48.1082937 C65.7403005,48.2205773 65.931394,48.2747473 66.1195523,48.2747473 C66.4442145,48.2747473 66.762038,48.1151923 66.9541099,47.8216796 C67.2573176,47.3567915 67.1305776,46.7303816 66.6703998,46.4240703 L66.151729,46.0783643 C66.3184428,45.8232679 66.4676157,45.5662048 66.6255541,45.3101199 L67.9436807,45.5927905 C68.0129061,45.607566 68.0830998,45.6144545 68.1513467,45.6144545 C68.6124929,45.6144545 69.0278249,45.2894242 69.1272702,44.8146925 C69.2413412,44.2700268 68.8971813,43.7342265 68.357066,43.6189878 L67.691179,43.476175 C67.9222462,43.0497031 68.1581754,42.6232313 68.3658414,42.1967594 L68.9829792,42.4203382 C69.0950935,42.4607211 69.2081961,42.47943 69.3203104,42.47943 C69.7297921,42.47943 70.1139159,42.2233452 70.2601636,41.8116488 C70.4463752,41.2866805 70.1763225,40.7095189 69.6576417,40.5213912 L69.1847949,40.3500158 C69.2598705,40.1658316 69.3427333,39.9816574 69.4139054,39.7974732 L70.0524976,40.021052 C70.1607183,40.0585 70.2708859,40.0762306 70.3791066,40.0762306 C70.7924819,40.0762306 71.1795407,39.8142356 71.3228533,39.3976174 C71.5032146,38.8706824 71.2263332,38.2964658 70.7057156,38.1142584 L70.0768772,37.8946231 C70.1558464,37.6355832 70.2133711,37.3775316 70.2845432,37.1194902 L71.0245175,37.3026759 C71.1034867,37.3223732 71.1834343,37.3312385 71.2624035,37.3312385 C71.711859,37.3312385 72.1193839,37.0229604 72.2314982,36.5620057 C72.3621418,36.0212836 72.0345545,35.4756296 71.4983327,35.3426704 L70.7456694,35.1565195 C70.8314673,34.712317 70.9114149,34.2681146 70.9718547,33.8239122 L71.7995837,33.8357326 C71.8044556,33.8357326 71.8093375,33.8357326 71.8142094,33.8357326 C72.3592067,33.8357326 72.8047587,33.3934968 72.8125557,32.8419427 C72.8203528,32.2844784 72.3796828,31.8264788 71.8288352,31.8186019 L71.1541728,31.8087482 C71.1814675,31.2493071 71.1814675,30.6928211 71.1697669,30.1363452 C71.215591,30.1205914 71.2623835,30.108771 71.3062608,30.0861186 L72.4498765,29.5050135 C72.942221,29.2548389 73.1411115,28.6481263 72.8934817,28.1507422 C72.6458519,27.6533581 72.0452767,27.4534101 71.5529322,27.7025963 L70.9679612,28.0000424 C70.9250623,27.8089697 70.8841201,27.6188753 70.8275737,27.4287809 L71.3735494,27.2081572 C71.8854015,27.0013206 72.1349881,26.4143054 71.9302472,25.897224 C71.7255064,25.3791542 71.1395669,25.1279912 70.6325967,25.3348278 L70.0378818,25.5751487 C70.0018116,25.5091583 69.9608594,25.4441563 69.9228424,25.3791442 L70.3557153,24.8502424 C70.7076724,24.4208154 70.6472225,23.7845519 70.223125,23.4299807 C69.7961023,23.0734327 69.167254,23.136468 68.8172537,23.5639282 L68.7139049,23.6899989 C68.3853491,23.3078434 68.0372957,22.9335749 67.64829,22.5770269 C66.6850456,21.6935438 65.6662232,21.1439564 64.6259563,20.7598342 L69.0941451,14.7044987 C69.2803566,14.4513689 69.3398281,14.1253603 69.2530618,13.822004 C69.1662955,13.5186477 68.9440038,13.2743833 68.653465,13.1611214 L65.8495196,12.0678567 C65.4107963,11.8964813 64.9106448,12.058003 64.6532611,12.4588775 L59.9959357,19.6911987 C59.8584634,19.6646028 59.7239262,19.6429389 59.5874323,19.6133879 C59.4665426,19.5404989 59.3280919,19.4912607 59.178929,19.4754968 C59.16625,19.4735301 59.153581,19.4725417 59.1399336,19.4715534 C58.971263,19.4538228 58.8035807,19.4390473 58.6349101,19.4213268 L58.6680552,19.1288025 C58.7314302,18.5752716 58.3375527,18.0749324 57.7905987,18.0118971 C57.231954,17.9419632 56.7474067,18.3457826 56.68501,18.8983352 L56.6460146,19.2450296 C56.2911324,19.2174554 55.9372287,19.1928262 55.5833249,19.1741173 L55.6272022,18.8717495 C55.7071498,18.3201852 55.3288664,17.8090141 54.7829007,17.7292366 C54.2310848,17.6336952 53.7299549,18.0306261 53.6519641,18.5821803 L53.5729949,19.1317677 C53.2629584,19.1337344 52.9519536,19.1307793 52.6428955,19.1435881 L52.5639263,18.1714622 C52.5190806,17.616953 52.0511058,17.2042682 51.4866108,17.2485846 C50.93772,17.2948777 50.5282383,17.7814298 50.573084,18.3369274 L50.6530316,19.3208737 C50.3673748,19.3583015 50.0826863,19.4045947 49.7979979,19.4558096 L49.5815564,18.6146863 C49.4421374,18.0749425 48.8912898,17.7568107 48.3638435,17.8927351 C47.8295685,18.0335812 47.5097882,18.584157 47.6492072,19.1229125 L47.8500446,19.9010005 C47.5780351,19.980778 47.3069941,20.086163 47.035963,20.180716 L46.6284381,19.1780608 C46.4198037,18.6629462 45.8377578,18.4137599 45.3259056,18.6284734 C44.8160103,18.8392434 44.572274,19.4282355 44.7818868,19.9443385 L45.174786,20.9115325 C44.822829,21.0632107 44.4728287,21.2227657 44.1228185,21.3842975 L43.6626407,20.4683185 C43.4120758,19.9729011 42.812489,19.7749298 42.3201345,20.0260827 C41.8287585,20.2782241 41.6327931,20.8849366 41.8823796,21.3823308 L42.3318351,22.2756575 C41.964284,22.4765839 41.6054983,22.6922857 41.2515945,22.9148761 L40.8713643,22.2805793 C40.5866759,21.8048592 39.9744101,21.6502259 39.5005849,21.9397951 C39.0287066,22.2283759 38.8775969,22.8478973 39.1632537,23.3246058 L39.6205063,24.0879284 C39.3124266,24.3400697 39.0092188,24.5991096 38.7225836,24.8788251 L38.0615686,24.1007372 C37.7008361,23.6772204 37.0710193,23.6309272 36.6537405,23.9923971 C36.2354834,24.3548553 36.1877125,24.9920971 36.5464982,25.4146356 L37.4083506,26.4291111 C37.2552841,26.6408695 37.0924638,26.8408075 36.951098,27.0673413 C36.8721288,27.1944004 36.8019351,27.3293364 36.7249127,27.4583621 L35.9088844,26.9984059 C35.4272621,26.7265673 34.8179215,26.9008978 34.550784,27.3874499 C34.2816997,27.874002 34.4542638,28.4886015 34.9358861,28.7594517 L35.7626366,29.2243399 C35.5540022,29.6429348 35.35608,30.0664516 35.1688901,30.4968669 L33.9833539,30.1452508 C33.4529824,29.9896292 32.8992097,30.2949622 32.7441965,30.8297742 C32.5891832,31.3645861 32.892391,31.9250156 33.4217841,32.0816156 L34.4308526,32.38005 C34.2816897,32.8065219 34.143239,33.2349705 34.0145522,33.6673526 L33.2901621,33.4881003 C32.7617374,33.355131 32.2147934,33.6870599 32.0831814,34.2287705 C31.9525378,34.7694926 32.2801252,35.3151466 32.8163469,35.4481058 L33.5095387,35.6194812 C33.4061899,36.0912578 33.3164985,36.5640228 33.2385077,37.0387646 L32.3990781,36.9107273 C31.8550593,36.8368599 31.3451639,37.207195 31.2622911,37.7577608 C31.1803968,38.3083366 31.555755,38.8224629 32.1007423,38.9061839 L32.9820924,39.0401314 C32.9733169,39.1465048 32.9567444,39.2528782 32.9489473,39.3582632 C32.9382251,39.5030428 32.943097,39.6438889 32.9352999,39.7886785 L32.0052006,39.78178 C32.0032538,39.78178 32.0003286,39.78178 31.9983719,39.78178 C31.4504495,39.78178 31.0039291,40.2289375 31.0000256,40.7834467 C30.996122,41.3399327 31.4397272,41.7949672 31.9915432,41.7989106 L32.9255461,41.8058092 C32.9391935,42.1396948 32.9508941,42.4735904 32.981114,42.8005875 L32.1299839,42.8685446 C31.5801147,42.9128711 31.1696646,43.3984348 31.2125535,43.9529541 C31.2535057,44.4818558 31.6912506,44.8827303 32.2069963,44.8827303 C32.2333227,44.8827303 32.2596391,44.8817419 32.2859655,44.8797752 L33.2667609,44.8019644 C33.3311043,45.1200961 33.4169022,45.4234524 33.4958714,45.7307522 L32.6203716,46.0213098 C32.0968288,46.1956403 31.8121403,46.764925 31.9837261,47.2948252 C32.1221668,47.7193304 32.5121508,47.9882139 32.9323548,47.9882139 C33.0357036,47.9882139 33.1400208,47.9724601 33.244338,47.9379874 L34.1159442,47.6484182 C34.2163679,47.8985928 34.330429,48.1349703 34.4435216,48.3743129 L33.5290165,48.9573847 C33.06202,49.2548308 32.9226009,49.8773072 33.2170332,50.3481055 C33.4071483,50.6524502 33.7308322,50.8189038 34.0623131,50.8189038 C34.2446311,50.8189038 34.4288959,50.7686773 34.5936629,50.6632822 L35.4418679,50.1225601 C35.6534275,50.4298598 35.8796228,50.7164739 36.115552,50.992246 L35.5208371,51.7565469 C35.1796024,52.1948391 35.2556564,52.8291359 35.6885294,53.1728752 C35.8718158,53.3186431 36.0892356,53.388577 36.3046987,53.388577 C36.6010878,53.388577 36.8935633,53.2565962 37.0905071,53.0034664 L37.566279,52.391822 C37.9036102,52.6547953 38.257514,52.894138 38.6211716,53.1177167 L38.3316113,53.7362497 C38.0947037,54.239544 38.30821,54.8403564 38.8064148,55.0787006 C38.9438871,55.1456794 39.0891464,55.1762087 39.232469,55.1762087 C39.6068489,55.1762087 39.9646562,54.9634619 40.1352736,54.599037 L40.3926573,54.0494496 C40.8460063,54.2454541 41.3081308,54.4237181 41.7790308,54.5852499 L41.6542375,55.5012289 C41.5791619,56.0527932 41.9613488,56.5619976 42.5073145,56.6368533 C42.5531386,56.6437519 42.5989627,56.646707 42.6438084,56.646707 C43.1351844,56.646707 43.5631855,56.2803154 43.6314324,55.7750443 L43.7152736,55.1574998 C43.949266,55.2185684 44.1832484,55.2816038 44.4172308,55.3387289 L44.2895124,56.2813038 C44.2144367,56.832868 44.5956453,57.3420725 45.1425893,57.4169282 C45.1884134,57.4238268 45.2342375,57.4267819 45.2790832,57.4267819 C45.7704593,57.4267819 46.1984603,57.0603903 46.2667073,56.5551192 L46.3739496,55.7671775 C46.5864876,55.8105156 46.7980471,55.8538536 47.0076699,55.8962033 L46.9608674,56.7629442 C46.9306475,57.3194302 47.3518198,57.7951503 47.9026674,57.8246912 C47.9211867,57.8266579 47.939716,57.8266579 47.9582354,57.8266579 C48.4847033,57.8266579 48.9253833,57.411018 48.9536565,56.873251 L48.9848548,56.2882024 C49.3026884,56.3502493 49.6205219,56.4034411 49.9393238,56.4379138 L49.9091039,56.9018135 C49.8730336,57.4582996 50.289334,57.9379531 50.8392032,57.9753809 C50.8616261,57.9763693 50.8840489,57.9773476 50.9064718,57.9773476 C51.4280678,57.9773476 51.8667911,57.5686063 51.9018929,57.0357611 L51.9389416,56.4713982 C52.2099726,56.4566227 52.4810137,56.4526893 52.7510763,56.4201832 L53.1693335,57.3932874 C53.3321538,57.7734661 53.699705,58 54.0857855,58 C54.2183758,58 54.352923,57.9734041 54.4825882,57.916279 C54.98859,57.6946669 55.2206257,57.1007631 55.0002807,56.5895819 L54.7467905,55.9996115 C54.9515314,55.941498 55.1543155,55.8755075 55.3571096,55.8075504 L56.011296,56.7934634 C56.2043362,57.084021 56.520223,57.2406209 56.84195,57.2406209 C57.0330435,57.2406209 57.2260838,57.1854625 57.3966912,57.0702238 C57.8549121,56.7599689 57.9767803,56.1335591 57.6706474,55.6706377 L57.2475382,55.0323469 Z M65.8855699,14.2435641 L66.7074485,14.564651 L62.5609968,20.1826726 C62.4137807,20.1511549 62.2665645,20.1206257 62.11837,20.0920631 L65.8855699,14.2435641 Z M48.2575496,54.0927271 C48.2594963,54.0828734 48.2653466,54.0759849 48.266325,54.0661312 C48.2692502,54.0375687 48.6319294,51.1103691 49.7960212,48.2294527 C51.502175,44.0060853 55.5423627,34.2434854 56.4295631,32.748368 C57.46983,30.9981541 60.0914674,24.8807717 60.2026133,24.6207534 C60.4210016,24.1095722 60.1889659,23.5166467 59.6819957,23.2950447 C59.1750255,23.0744211 58.5881076,23.3098202 58.3697194,23.8209914 C58.343393,23.8830383 55.6895889,30.0742982 54.7175689,31.7102618 C53.5066847,33.7500449 48.0021326,47.3312042 47.9475331,47.4671285 C46.8048958,50.2958417 46.3846918,53.0723515 46.3008507,53.6928511 C43.2580409,53.0526441 40.0816624,52.1908351 38.0303702,50.1471186 C35.7694653,47.8965555 34.6151274,43.9194294 34.9397896,39.5079343 C35.2332535,35.5426185 36.5474766,31.505402 38.6416677,28.1408885 C40.4618926,25.2156557 43.5905002,23.7382689 46.9082446,22.3623235 C49.1389296,21.4374792 51.4417551,21.1390447 53.7952767,21.1390447 C55.3425138,21.1390447 56.9102369,21.2680704 58.495501,21.431569 C59.2744807,21.6236301 60.0349411,21.7595544 60.7700534,21.8915252 C62.8778919,22.2697372 64.6981168,22.5957459 66.3067821,24.0701877 C68.0421876,25.6608465 69.0571064,27.5459964 69.1653271,29.3769761 C69.2413712,30.6741223 69.1984722,31.9949092 69.0366303,33.3028974 C68.3814656,38.5732464 65.7773791,43.940115 61.2965213,49.2518253 C58.670012,52.363209 54.1199289,55.3229146 49.2022947,54.2847983 C48.8961418,54.2197862 48.5753831,54.1567508 48.2575496,54.0927271 Z" id="Shape"></path>
                <path d="M49.1116465,57.0043498 C48.5833387,56.9498652 48.1053931,57.4135592 48.0578817,58.0395911 L48.0037248,58.7623744 C47.9571669,59.3884063 48.3524466,59.9410633 48.8883535,59.9955479 C48.9168623,59.9988841 48.9453614,60 48.9738702,60 C49.4727254,60 49.8974577,59.5529873 49.9421183,58.9603066 L49.9962752,58.2375233 C50.0428331,57.61148 49.6475534,57.0588344 49.1116465,57.0043498 Z" id="Shape"></path>
                <path d="M52.5772608,58.6051574 C52.4281915,58.1323881 51.9627307,57.8844898 51.5416845,58.0526987 C51.1182592,58.2191398 50.8970222,58.7370664 51.0468872,59.2089563 L51.4227392,60.3953126 C51.540093,60.7680395 51.8533017,61 52.187922,61 C52.2775227,61 52.3695024,60.9831827 52.4583155,60.9477622 C52.8817408,60.7813211 53.1029778,60.2633945 52.9531128,59.7915047 L52.5772608,58.6051574 Z" id="Shape"></path>
                <path d="M55.6049366,57.6236007 C55.4218204,57.0985439 54.9288755,56.8577702 54.5037863,57.086413 C54.0803294,57.3140405 53.8849496,57.9240654 54.0697066,58.4491222 L54.3950634,59.3768187 C54.5315865,59.7673171 54.8397743,60 55.1634988,60 C55.2746744,60 55.3874908,59.9726822 55.4962137,59.9140065 C55.9196706,59.6863789 56.1150504,59.0763541 55.9302934,58.5512972 L55.6049366,57.6236007 Z" id="Shape"></path>
                <path d="M60.1287206,57.4654329 C59.7764101,56.9885567 59.0593191,56.8566464 58.5212311,57.1701724 C57.9865303,57.4857244 57.8392655,58.1310314 58.1915759,58.609944 L58.8712794,59.5332644 C59.0944446,59.8356316 59.4637493,60 59.8409886,60 C60.0596296,60 60.2816579,59.9441958 60.4787689,59.8285249 C61.0134697,59.5129729 61.1607345,58.8676658 60.8084241,58.3887532 L60.1287206,57.4654329 Z" id="Shape"></path>
                <path d="M61.9811704,55.4309223 C61.6670205,55.0018502 61.0073132,54.8704511 60.5036247,55.1404073 C60.0020378,55.4076814 59.8491502,55.9726287 60.1633001,56.4017007 L61.0188296,57.5700309 C61.2219757,57.848033 61.5717257,58 61.9288103,58 C62.1225309,58 62.319404,57.9553033 62.4963753,57.860555 C62.9979622,57.5932808 63.1508498,57.0283336 62.8366999,56.5992616 L61.9811704,55.4309223 Z" id="Shape"></path>
                <path d="M63.8234917,54.3264664 C63.4247987,53.9090118 62.7582462,53.8898013 62.3327683,54.2809762 C61.9083242,54.672151 61.8866874,55.3271383 62.2864037,55.743589 L63.1765083,56.6735155 C63.3835822,56.8908337 63.6637951,57 63.9450523,57 C64.2046622,57 64.4632488,56.9070115 64.6672317,56.7190058 C65.0916758,56.3278309 65.1133126,55.6728436 64.7135963,55.256393 L63.8234917,54.3264664 Z" id="Shape"></path>
                <path d="M65.541235,51.2239408 C65.1315993,50.8705481 64.5338296,50.9436296 64.2076035,51.3851218 C63.8804473,51.8276084 63.9471825,52.4733166 64.3568182,52.8257046 L65.4587555,53.7757531 C65.6339164,53.9269186 65.8424449,54 66.0500434,54 C66.3290083,54 66.605183,53.8678506 66.7923965,53.6145721 C67.1195527,53.1720854 67.0528175,52.5263773 66.6431818,52.1739892 L65.541235,51.2239408 Z" id="Shape"></path>
                <path d="M66.7262109,49.2801273 C66.3119189,48.8871825 65.6628901,48.9097494 65.2746787,49.3345062 C64.8884705,49.7592631 64.9125481,50.4240922 65.3278468,50.8190961 L66.2737993,51.7188809 C66.4714129,51.9066333 66.7221946,52 66.9729762,52 C67.2478356,52 67.5226949,51.8871447 67.7253213,51.664502 C68.1115295,51.2397451 68.0874519,50.574916 67.6721532,50.1799121 L66.7262109,49.2801273 Z" id="Shape"></path>
                <path d="M68.772219,47.3040512 C68.3666806,46.8986496 67.7096922,46.8986496 67.3041538,47.3040512 C66.8986154,47.7084461 66.8986154,48.3662196 67.3041538,48.7716213 L68.227781,49.6959436 C68.4305502,49.8986444 68.6961819,50 68.9618136,50 C69.2274453,50 69.493077,49.8986444 69.6958462,49.6959436 C70.1013846,49.2915487 70.1013846,48.6337752 69.6958462,48.2283735 L68.772219,47.3040512 Z" id="Shape"></path>
                <path d="M72.3481855,43.3655586 L71.3081658,43.048369 C70.7943773,42.8938847 70.237529,43.1215005 70.0566973,43.5594906 C69.8758656,43.9974806 70.141847,44.4790164 70.6518145,44.6343253 L71.6918342,44.9515149 C71.8009093,44.9843824 71.9109348,45 72.0200099,45 C72.4228128,45 72.8007497,44.7847032 72.9433027,44.4403933 C73.1241344,44.0024116 72.858153,43.5208674 72.3481855,43.3655586 Z" id="Shape"></path>
                <path d="M73.3825275,40.4042391 L72.4348892,40.0701265 C71.9139922,39.8847776 71.3099462,40.0798826 71.0855587,40.5017833 C70.859171,40.9236924 71.0975808,41.4138774 71.6174725,41.5967873 L72.5651108,41.9308999 C72.698338,41.9780488 72.8365812,42 72.9728139,42 C73.3695002,42 73.7471482,41.8130278 73.9144413,41.4992431 C74.140829,41.0773424 73.9024192,40.5871491 73.3825275,40.4042391 Z" id="Shape"></path>
                <path d="M74.1545798,37.1664299 L73.2011876,37.0148374 C72.6465431,36.9237027 72.1128772,37.262083 72.0159456,37.7637906 C71.9170083,38.2664038 72.2887703,38.7455472 72.8454206,38.8339746 L73.7988127,38.985567 C73.8587707,38.9954908 73.9187389,39 73.977694,39 C74.4653809,39 74.897111,38.6841747 74.9840547,38.2366138 C75.082992,37.7340099 74.7112198,37.2548572 74.1545798,37.1664299 Z" id="Shape"></path>
                <path d="M74.1492685,34.1751681 L73.2947505,34.0193411 C72.7219335,33.9166585 72.1459746,34.2328135 72.0234502,34.7308974 C71.9009259,35.2289813 72.27059,35.7180725 72.850731,35.8243614 L73.705249,35.9801884 C73.7796043,35.9937005 73.8549998,36 73.9283043,36 C74.423624,36 74.8697345,35.7027619 74.9765493,35.2686229 C75.0990737,34.770539 74.7294202,34.281457 74.1492685,34.1751681 Z" id="Shape"></path>
                <path d="M72.0063443,30.8565188 C71.9424056,31.3824094 72.3690141,31.8549568 72.9580936,31.912037 L73.8113106,31.9943849 C73.8500903,31.9981315 73.8888807,32 73.9276604,32 C74.4685256,32 74.9339138,31.6359978 74.9936557,31.1447271 C75.0575944,30.6188366 74.6309859,30.1462891 74.0419064,30.089209 L73.1886894,30.006861 C72.6038066,29.9432268 72.070283,30.3296892 72.0063443,30.8565188 Z" id="Shape"></path>
                <path d="M46.3208646,57.0335473 C45.8211261,56.9049436 45.2955746,57.1572668 45.1489765,57.5992284 L45.0383316,57.9321227 C44.8917335,58.3732759 45.1784812,58.8363991 45.6791354,58.9666281 C45.7676495,58.989415 45.8570888,59 45.9446775,59 C46.3531356,59 46.7302384,58.7647711 46.8510235,58.4009469 L46.9616684,58.0680526 C47.1082665,57.6268994 46.8215188,57.1637762 46.3208646,57.0335473 Z" id="Shape"></path>
                <path d="M8.34347981,13 C8.66055166,13 8.97366871,12.8584434 9.17022535,12.5940784 C9.49322434,12.1609706 9.38456341,11.5619232 8.92822391,11.256318 L2.4298086,6.8961627 L2.95035545,6.21181265 L9.49915149,9.64106987 C9.98908151,9.89512484 10.6044424,9.7273132 10.8741073,9.26420648 C11.143762,8.79921822 10.9659679,8.21611576 10.4770291,7.95924809 L3.14395863,4.11938467 C2.69255504,3.88501861 2.13349186,4.00501434 1.83518256,4.39781317 L0.191563318,6.55773634 C0.0335230063,6.76585694 -0.0306843471,7.0255277 0.0137692317,7.27771073 C0.0582228105,7.53082493 0.207372406,7.75582173 0.427637613,7.90393486 L7.76070806,12.8237599 C7.93752103,12.9428148 8.14197715,13 8.34347981,13 Z" id="Shape"></path>
                <path d="M8.85821639,17 C9.40729524,17 9.89164616,16.6919866 9.98426971,16.2572957 C10.0880584,15.7740146 9.66732687,15.3159037 9.04458345,15.2352132 L7.33039054,15.0130967 C6.70431015,14.9289323 6.11839901,15.2595039 6.01573029,15.7436557 C5.91194162,16.2269368 6.33267313,16.6850477 6.95541655,16.7657382 L8.66960946,16.9878547 C8.73321745,16.9965261 8.79571692,17 8.85821639,17 Z" id="Shape"></path>
                <path d="M8,19 C8,18.44727 7.50646069,18 6.89655172,18 L5.10344828,18 C4.49353931,18 4,18.44727 4,19 C4,19.55273 4.49353931,20 5.10344828,20 L6.89655172,20 C7.50646069,20 8,19.55273 8,19 Z" id="Shape"></path>
                <path d="M4.92307692,21 C4.41286462,21 4,21.44727 4,22 C4,22.55273 4.41286462,23 4.92307692,23 L6.07692308,23 C6.58713538,23 7,22.55273 7,22 C7,21.44727 6.58713538,21 6.07692308,21 L4.92307692,21 Z" id="Shape"></path>
                <path d="M7.97159091,24.6531646 C7.83368733,24.2001051 7.24005104,23.9172596 6.64857708,24.0216816 L4.85583056,24.3374231 C4.26219427,24.4418452 3.89158667,24.8940796 4.02840909,25.3471392 C4.14691791,25.7368821 4.60048829,26 5.10254558,26 C5.1844272,26 5.26846013,25.9934242 5.35142292,25.9786222 L7.14416944,25.6628807 C7.73780573,25.5584587 8.10841333,25.1062242 7.97159091,24.6531646 Z" id="Shape"></path>
                <path d="M8.88711962,27.5763612 C8.62258668,27.0606517 7.98209811,26.8537583 7.45615693,27.1095676 L5.58986932,28.022762 C5.06289368,28.2806167 4.84939038,28.9074229 5.1128782,29.4231325 C5.30034945,29.789026 5.67631576,30 6.06790556,30 C6.22828898,30 6.39075199,29.964328 6.54385156,29.8899262 L8.41013917,28.9767318 C8.9371148,28.718877 9.15060744,28.0920812 8.88711962,27.5763612 Z" id="Shape"></path>
                <path d="M25.9372144,22.2414885 C26.1361399,21.6480641 25.8466037,20.9943982 25.2914745,20.7824683 L23.4250817,20.0685724 C22.8720428,19.8521763 22.2596314,20.1656166 22.0627856,20.7601604 C21.8638601,21.3535849 22.1533963,22.0072508 22.7085255,22.2191807 L24.5749183,22.9330766 C24.692597,22.9788116 24.8144565,23 24.9331911,23 C25.3716654,23 25.7820265,22.7088676 25.9372144,22.2414885 Z" id="Shape"></path>
                <path d="M21.0841362,22.2317389 L19.2178867,22.0096223 C18.6367686,21.9376121 18.0941806,22.2777259 18.0108605,22.7636015 C17.9275405,23.249477 18.3326659,23.6997872 18.9158636,23.7692031 L20.7821131,23.9913197 C20.8331417,23.9973968 20.8841702,24 20.9341644,24 C21.4569595,24 21.9131136,23.680703 21.9891392,23.2373406 C22.0724593,22.7514561 21.6673445,22.3011459 21.0841362,22.2317389 Z" id="Shape"></path>
                <path d="M17,20 C17,20.55273 17.4381767,21 17.9796694,21 L20.0203306,21 C20.5618233,21 21,20.55273 21,20 C21,19.44727 20.5618233,19 20.0203306,19 L17.9796694,19 C17.4381767,19 17,19.44727 17,20 Z" id="Shape"></path>
                <path d="M9.10365465,27 C9.21031082,27 9.32019932,26.983603 9.42793661,26.9472826 L11.2206163,26.3475396 C11.8034523,26.1519154 12.1298855,25.480719 11.9510477,24.8481821 C11.7711289,24.2156451 11.1570506,23.8572027 10.5720634,24.0539904 L8.77938372,24.6537334 C8.19654771,24.8493576 7.87011453,25.5205539 8.04895225,26.1530909 C8.19546658,26.668498 8.63178827,27 9.10365465,27 Z" id="Shape"></path>
                <path d="M9.01086079,18.2369771 C9.086876,18.6805508 9.54303122,19 10.0658277,19 C10.115822,19 10.1668507,18.9973956 10.2178795,18.9913155 L12.0841338,18.7690931 C12.6673436,18.6996531 13.0724595,18.2491282 12.9891392,17.7630122 C12.905819,17.2768962 12.3621951,16.940967 11.7821099,17.0086737 L9.91585552,17.2308961 C9.33265637,17.3003451 8.92754053,17.75087 9.01086079,18.2369771 Z" id="Shape"></path>
                <path d="M15.1636282,14.4763799 C14.8446363,14.9469326 15.0062842,15.5629498 15.5246543,15.8519293 L17.3179214,16.8516164 C17.4989697,16.952165 17.6983369,17 17.8955521,17 C18.2662784,17 18.6283749,16.8311029 18.8363718,16.5245588 C19.1553637,16.0540061 18.9937158,15.4379889 18.4753457,15.1490093 L16.6820786,14.1493222 C16.1594046,13.8584033 15.4815386,14.0058171 15.1636282,14.4763799 Z" id="Shape"></path>
                <path d="M13.4040092,15.0103849 L11.46883,14.0971189 C10.9527822,13.855547 10.3379629,14.0797929 10.0970718,14.6016592 C9.85618069,15.1235255 10.0789276,15.7452769 10.5959868,15.9888841 L12.531166,16.9021501 C12.6722741,16.9684062 12.8204314,17 12.9665865,17 C13.3556349,17 13.7275506,16.7767769 13.9029346,16.3976098 C14.1438153,15.8757435 13.9210685,15.253992 13.4040092,15.0103849 Z" id="Shape"></path>
                <path d="M8.88816297,23 C8.96626944,23 9.04437592,22.9909563 9.1224824,22.9703931 L10.3444235,22.6546198 C10.8182701,22.5320913 11.0977258,22.0691256 10.9684133,21.6209549 C10.8391008,21.1711421 10.3478983,20.9079977 9.8775176,21.0297009 L8.65557647,21.3454742 C8.18172991,21.4680027 7.9022742,21.9309685 8.03158667,22.3791392 C8.13920636,22.7541263 8.49763058,23 8.88816297,23 Z" id="Shape"></path>
                <path d="M9.5882894,31.9238072 C10.0022555,31.6139888 10.124627,30.9688889 9.86079499,30.482768 C9.59783385,29.9976698 9.05021885,29.8539687 8.63364895,30.1627643 L7.4117106,31.0758976 C6.99774454,31.385716 6.87537297,32.0308159 7.13920501,32.5169368 C7.30843681,32.8287901 7.59569452,33 7.88990173,33 C8.05305494,33 8.21794997,32.947007 8.36635105,32.8369405 L9.5882894,31.9238072 Z" id="Shape"></path>
                <path d="M10.1429934,30 C10.2902947,30 10.4387044,29.972106 10.5826577,29.9118385 L12.2966595,29.197633 C12.8791573,28.9554773 13.1547802,28.2859069 12.9115176,27.703378 C12.6682551,27.1208492 11.9987203,26.8452116 11.4173423,27.0884871 L9.70334051,27.8026926 C9.12084272,28.0448482 8.84521981,28.7144187 9.08848237,29.2969476 C9.27148062,29.7355154 9.69552467,30 10.1429934,30 Z" id="Shape"></path>
                <path d="M14.8574096,21.9972446 C14.8834505,21.9990784 14.9095021,22 14.9345082,22 C15.4887504,22 15.9575621,21.6216403 15.9971516,21.1266431 C16.0398668,20.6086908 15.5970961,20.1586917 15.009516,20.1219597 L13.1425904,20.00441 C12.5352102,19.9529796 12.0445182,20.3579808 12.0028484,20.8750115 C11.9601332,21.3929638 12.4029039,21.842963 12.990484,21.8796949 L14.8574096,21.9972446 Z" id="Shape"></path>
                <path d="M12.9411765,25 L15.0588235,25 C15.57904,25 16,24.55273 16,24 C16,23.44727 15.57904,23 15.0588235,23 L12.9411765,23 C12.42096,23 12,23.44727 12,24 C12,24.55273 12.42096,25 12.9411765,25 Z" id="Shape"></path>
                <path d="M13.9133184,27 C13.9454668,27 13.9776061,26.9982678 14.0097545,26.9947944 L16.1813255,26.7727141 C16.6840327,26.7215291 17.0483446,26.2843151 16.9947731,25.7967778 C16.9420885,25.3083788 16.4840288,24.9466277 15.9902455,25.0064828 L13.8186745,25.2285631 C13.3159673,25.2797482 12.9516554,25.7169621 13.0052269,26.2044995 C13.0543364,26.6608034 13.4507875,27 13.9133184,27 Z" id="Shape"></path>
                <path d="M10.6641361,32.2433643 C10.2510191,31.8900014 9.61914778,31.9256199 9.25291386,32.323038 L8.25284852,33.4028219 C7.88563453,33.7983684 7.92274695,34.4057445 8.33586394,34.7572358 C8.52630638,34.9203263 8.76362189,35 8.99996733,35 C9.27537532,35 9.54980325,34.891273 9.74708614,34.6775621 L10.7471515,33.5977781 C11.1143655,33.2022317 11.077253,32.5948556 10.6641361,32.2433643 Z" id="Shape"></path>
                <path d="M12.6473705,34.2003267 C12.2367964,33.8904125 11.6331113,33.9459718 11.2965832,34.3262019 L10.2167058,35.5485065 C9.88111836,35.9278743 9.94205224,36.4878055 10.3526264,36.799462 C10.5307342,36.9340222 10.7453946,37 10.9591239,37 C11.2375307,37 11.513125,36.8888814 11.7034138,36.6735869 L12.7832911,35.4512822 C13.1188786,35.0719055 13.0579543,34.5119744 12.6473705,34.2003267 Z" id="Shape"></path>
                <path d="M14.6536289,36.266726 C14.2203077,35.886014 13.5511899,35.9161525 13.1571682,36.3360343 L12.2750116,37.2792665 C11.8820277,37.7001563 11.9140836,38.3510759 12.3463669,38.732796 C12.5501077,38.9116006 12.8045216,39 13.0589249,39 C13.3464219,39 13.6339295,38.886492 13.8428276,38.6634877 L14.7249842,37.7202555 C15.1179787,37.2993657 15.0859122,36.648446 14.6536289,36.266726 Z" id="Shape"></path>
                <path d="M16.5245246,37.1647834 C16.051814,36.8437415 15.4365182,37.0064246 15.1483974,37.5256825 L14.1482904,39.3183192 C13.8591995,39.8375771 14.0056951,40.517356 14.4754754,40.8362468 C14.639553,40.9472137 14.8202423,41 14.9989714,41 C15.3349473,41 15.6631024,40.8136209 15.8516026,40.4753476 L16.8517096,38.6827109 C17.1408005,38.163442 16.9943049,37.4836631 16.5245246,37.1647834 Z" id="Shape"></path>
                <path d="M19.5594817,39.1705184 C19.1113104,38.8497473 18.5187602,38.9955543 18.2327869,39.4902445 L17.1526824,41.3565571 C16.8657779,41.8522924 16.9951696,42.5125831 17.4405183,42.8302402 C17.6017851,42.9458449 17.7808712,43 17.9590068,43 C18.2749734,43 18.5843826,42.8271155 18.7672131,42.5105142 L19.8473176,40.6442016 C20.1342221,40.1484556 20.0048304,39.4881649 19.5594817,39.1705184 Z" id="Shape"></path>
                <path d="M22.2188045,40.054098 C21.6149661,39.8716669 20.9731822,40.1659758 20.7733847,40.7062095 L20.0590469,42.6413656 C19.8592609,43.1826004 20.1829416,43.7671827 20.7812024,43.9465897 C20.901737,43.9828674 21.023403,44 21.1428288,44 C21.6216638,44 22.0669991,43.7268592 22.2266108,43.2944782 L22.9409486,41.3593221 C23.1407461,40.818077 22.8170539,40.233505 22.2188045,40.054098 Z" id="Shape"></path>
                <path d="M24.2676061,41.0730077 C23.6785193,40.8563974 23.0168963,41.137663 22.7904106,41.7066719 L22.0763591,43.4998947 C21.8498734,44.0688925 22.1444167,44.707953 22.7323953,44.9267151 C22.867391,44.9762853 23.0068539,45 23.1429806,45 C23.6015388,45 24.0344254,44.7316677 24.2095908,44.2930619 L24.9236423,42.4998392 C25.150128,41.9308192 24.8555732,41.2917698 24.2676061,41.0730077 Z" id="Shape"></path>
                <path d="M26.2699769,42.0156341 C25.7899192,41.9236434 25.3237554,42.2473347 25.2369425,42.7307036 L25.01471,43.9525661 C24.9261637,44.4350641 25.2464896,44.8976035 25.7300231,44.9852488 C25.7838478,44.9956635 25.8368013,45 25.8897549,45 C26.31165,45 26.6858006,44.6997417 26.7630575,44.2701793 L26.98529,43.0483167 C27.0738363,42.5658188 26.7535104,42.1032794 26.2699769,42.0156341 Z" id="Shape"></path>
                <path d="M29.1442647,43.0046186 C28.6149698,42.9542911 28.1692988,43.3213422 28.1215164,43.8089961 L28.0038953,45.0307521 C27.9570351,45.5201476 28.3383815,45.952276 28.855726,45.9965258 C28.8851313,45.9991292 28.9136144,46 28.9421069,46 C29.4236194,46 29.8334583,45.6529147 29.8784837,45.1921483 L29.9961048,43.9703923 C30.042965,43.4809968 29.6616092,43.0488684 29.1442647,43.0046186 Z" id="Shape"></path>
                <path d="M13.0015406,8.57254724 C13.2113597,8.85001573 13.5575208,9 13.9100622,9 C14.1177545,9 14.3275736,8.94750311 14.5139656,8.83876571 C15.0156205,8.54442219 15.1508828,7.94916942 14.8164462,7.50765414 L13.9984594,6.42776741 C13.6640227,5.98625212 12.9876894,5.86720541 12.4860344,6.16154893 C11.9843795,6.45589246 11.8491172,7.05114522 12.1835538,7.49266051 L13.0015406,8.57254724 Z" id="Shape"></path>
                <path d="M15.6858077,5.41948875 C15.8732479,5.78096179 16.3242801,6 16.7999043,6 C16.9486809,6 17.0998087,5.97926844 17.2450703,5.93419623 C17.8601141,5.74489848 18.1600185,5.20765951 17.9140009,4.73442436 L17.3141923,3.58062006 C17.0681748,3.10648033 16.3641073,2.87751941 15.7549297,3.06591258 C15.1398859,3.25521032 14.8399815,3.7924493 15.0859991,4.26568444 L15.6858077,5.41948875 Z" id="Shape"></path>
                <path d="M18.7631069,4.98957808 C18.8056244,4.99687449 18.8481419,5 18.8897976,5 C19.3253957,5 19.7054678,4.61663976 19.7688132,4.08432181 L19.9909528,2.21755012 C20.060367,1.63417863 19.7228214,1.09352954 19.2368953,1.01018619 C18.7492276,0.929968338 18.3006121,1.33208163 18.231189,1.91544245 L18.0090493,3.78221415 C17.9396262,4.36558564 18.2771719,4.90624539 18.7631069,4.98957808 Z" id="Shape"></path>
                <path d="M21.7430793,4.98438635 C21.7925507,4.99553406 21.8411599,5 21.8897691,5 C22.3168177,5 22.6935238,4.60402781 22.7655622,4.04520309 L22.9877657,2.33192777 C23.0684878,1.71063703 22.741262,1.12170435 22.2569205,1.01797124 C21.7743211,0.905317676 21.3142887,1.33474442 21.2344376,1.9571545 L21.0122341,3.67042982 C20.931512,4.29170914 21.2587467,4.88065324 21.7430793,4.98438635 Z" id="Shape"></path>
                <path d="M24.6530654,3.97198624 C24.7163725,3.99138293 24.7804962,4 24.8429782,4 C25.2260871,4 25.5721966,3.65520674 25.6626281,3.14448241 L25.9783217,1.35155744 C26.0827278,0.757862058 25.7999253,0.165247948 25.3469346,0.028411915 C24.8972354,-0.108424118 24.4426031,0.262220364 24.3373719,0.855915746 L24.0216783,2.64884071 C23.9172722,3.24253609 24.2000747,3.8351502 24.6530654,3.97198624 Z" id="Shape"></path>
                <path d="M27.8787035,3.99798662 C27.8998378,3.99899847 27.9209721,4 27.9421064,4 C28.4328066,4 28.8472407,3.58155815 28.8803254,3.03606699 L28.9979474,1.10012681 C29.0319449,0.531445676 28.6395673,0.0393967957 28.1212965,0.0010806677 C27.6066955,-0.0241226922 27.1545942,0.394319162 27.1196746,0.963000298 L27.0020526,2.89894048 C26.9680551,3.46762161 27.3604327,3.95967049 27.8787035,3.99798662 Z" id="Shape"></path>
                <path d="M30.6653316,3.97604875 C30.725359,3.99270585 30.7845613,4 30.8429468,4 C31.2310665,4 31.5805376,3.65737775 31.6652278,3.15750481 L31.9809845,1.29131247 C32.0788354,0.715416181 31.7893918,0.147848441 31.3346684,0.0249676739 C30.875836,-0.1020827 30.4317979,0.268660401 30.3347722,0.843511623 L30.0190155,2.70970396 C29.9211646,3.28560025 30.2106082,3.85315732 30.6653316,3.97604875 Z" id="Shape"></path>
                <path d="M33.7549297,3.93420445 C33.9001913,3.97927103 34.0513191,4 34.2000957,4 C34.6757199,4 35.1267521,3.78098914 35.3141923,3.41956124 L35.9140009,2.26590103 C36.1600185,1.79271576 35.8601141,1.25554387 35.2450703,1.06627899 C34.634717,0.877004882 33.9318132,1.10684168 33.6858077,1.5809222 L33.0859991,2.73458241 C32.8399815,3.20775846 33.1398859,3.74493034 33.7549297,3.93420445 Z" id="Shape"></path>
                <path d="M36.6319439,4.90264148 C36.7959652,4.96844871 36.9700179,5 37.1418426,5 C37.5613673,5 37.964154,4.81339694 38.1649875,4.48977931 L38.8790673,3.33591422 C39.1613516,2.8797775 38.932629,2.32537762 38.368049,2.09730926 C37.8034804,1.87014553 37.1172897,2.05403471 36.8350054,2.51018066 L36.1209256,3.66404576 C35.8386527,4.12018248 36.0673753,4.67457312 36.6319439,4.90264148 Z" id="Shape"></path>
                <path d="M39.6697238,6.9201779 C39.8237311,6.97483791 39.9844235,7 40.141779,7 C40.5770037,7 40.9921389,6.80651315 41.1829654,6.47939715 L41.897179,5.25772102 C42.1583183,4.81087187 41.9049953,4.28420062 41.3302762,4.08116249 C40.7510889,3.87465924 40.0770541,4.07682665 39.8170346,4.52193435 L39.102821,5.74361049 C38.8416817,6.19046852 39.0950047,6.71713977 39.6697238,6.9201779 Z" id="Shape"></path>
                <path d="M43.0899171,9 C43.4222481,9 43.7492456,8.86227237 43.9633427,8.59952965 L44.7813817,7.59932897 C45.143533,7.15783039 45.0455428,6.53075458 44.5630198,6.19963815 C44.0826346,5.86949191 43.3977397,5.95739954 43.0366573,6.39987832 L42.2186183,7.400079 C41.856467,7.84157758 41.9544572,8.46865339 42.4369802,8.79976983 C42.6329714,8.93455687 42.8619787,9 43.0899171,9 Z" id="Shape"></path>
                <path d="M44.483289,10.8610816 C44.6574922,10.9548526 44.8510571,11 45.0425774,11 C45.3869153,11 45.7251401,10.8541379 45.9237958,10.5884548 L46.8365918,9.36597294 C47.1462956,8.95182275 47.0026476,8.40223046 46.5167063,8.13828107 C46.0297427,7.87607426 45.3859034,7.99762897 45.0761996,8.41090786 L44.1634036,9.63338974 C43.8537102,10.0475399 43.9973478,10.5971411 44.483289,10.8610816 Z" id="Shape"></path>
                <path d="M46.1963416,12.5866517 C46.4107596,12.8556554 46.7544638,13 47.1046335,13 C47.3212029,13 47.5399238,12.9446962 47.7317128,12.8294144 L49.5245973,11.7496373 C50.025612,11.4478276 50.1505953,10.8498231 49.8036584,10.4139771 C49.4556402,9.97813107 48.7703832,9.86846411 48.2682872,10.1712144 L46.4754027,11.2509915 C45.974388,11.5528012 45.8494047,12.1507961 46.1963416,12.5866517 Z" id="Shape"></path>
                <path d="M48.5246528,13.1490111 C48.0062842,13.4379803 47.8446368,14.053997 48.1636278,14.5245592 C48.3716241,14.831103 48.7337196,15 49.1044449,15 C49.3016596,15 49.5010372,14.952165 49.682085,14.8516066 L51.4753472,13.8519204 C51.9937158,13.5629511 52.1553632,12.9469345 51.8363722,12.4763722 C51.5173812,12.0058099 50.8384356,11.8584062 50.317915,12.1493249 L48.5246528,13.1490111 Z" id="Shape"></path>
                <path d="M49.0284091,16.3471392 C49.1469179,16.7368821 49.6004993,17 50.1025456,17 C50.1844272,17 50.2684601,16.9934242 50.3514229,16.9786222 L52.1441694,16.6628807 C52.7378057,16.5584587 53.1084133,16.1062242 52.9715909,15.6531646 C52.8336873,15.2001051 52.2422134,14.9172596 51.6485771,15.0216816 L49.8558306,15.3374231 C49.2621943,15.4418452 48.8915867,15.8940796 49.0284091,16.3471392 Z" id="Shape"></path>
                <path d="M10.0799737,11.67061 C9.87686075,12.2451493 10.0738942,12.9223204 10.520908,13.1833781 L11.7430343,13.8973682 C11.8628204,13.9676477 11.987815,14 12.1101965,14 C12.4487122,14 12.7716024,13.751223 12.9200263,13.3306314 C13.1231393,12.7560921 12.9261058,12.078921 12.479092,11.8178633 L11.2569657,11.1038732 C10.8056145,10.8394798 10.2822156,11.0982983 10.0799737,11.67061 Z" id="Shape"></path>
                <path d="M15.7070307,10.2929655 C15.3164094,9.90234484 14.6835873,9.90234484 14.292966,10.2929655 C13.9023447,10.6835861 13.9023447,11.3164072 14.292966,11.7070278 L15.2929693,12.7070295 C15.48828,12.9023398 15.7441408,13 16.0000017,13 C16.2558625,13 16.5117234,12.9023398 16.707034,12.7070295 C17.0976553,12.3164089 17.0976553,11.6835878 16.707034,11.2929672 L15.7070307,10.2929655 Z" id="Shape"></path>
                <path d="M16.4454076,7.16711178 C15.9726307,7.4591466 15.8585057,8.03509417 16.1886419,8.45241203 L17.1016005,9.60611618 C17.3043608,9.86299533 17.6283828,10 17.9574966,10 C18.1643365,10 18.3732214,9.94592358 18.5545924,9.83325745 C19.0273693,9.54122262 19.1414943,8.96527506 18.8113581,8.54795719 L17.8983995,7.39425305 C17.5682632,6.97513541 16.9161499,6.87508618 16.4454076,7.16711178 Z" id="Shape"></path>
                <path d="M13.0030186,18.1370233 C13.0398583,18.6287089 13.4149418,19 13.8561601,19 C13.8795996,19 13.9038793,18.9990777 13.928159,18.9963203 L15.2141597,18.8786832 C15.686362,18.8354868 16.0363257,18.3814827 15.9969826,17.8631451 C15.9584712,17.3448076 15.554084,16.956972 15.0718337,17.0038387 L13.785833,17.1214758 C13.3136307,17.1646722 12.963667,17.6186857 13.0030186,18.1370233 Z" id="Shape"></path>
                <path d="M17.2656236,12.2929425 C16.902109,12.6745733 16.9132098,13.2831221 17.2896722,13.6506864 L18.3950109,14.7308824 C18.579084,14.9109246 18.8158767,15 19.0526693,15 C19.3005628,15 19.5484563,14.9015437 19.7343764,14.7065132 C20.097891,14.3248823 20.0867902,13.7163335 19.7103278,13.3487692 L18.6049891,12.2685733 C18.2285267,11.9009994 17.6291382,11.9122526 17.2656236,12.2929425 Z" id="Shape"></path>
                <path d="M19.9333333,17 L18.0666667,17 C17.477088,17 17,17.44727 17,18 C17,18.55273 17.477088,19 18.0666667,19 L19.9333333,19 C20.522912,19 21,18.55273 21,18 C21,17.44727 20.5229227,17 19.9333333,17 Z" id="Shape"></path>
                <path d="M11.8788096,32 C12.0297173,32 12.1831887,31.9534767 12.322946,31.8542376 L13.5670389,30.9724547 C13.9845987,30.6757748 14.124356,30.0276139 13.8791354,29.5231511 C13.6330632,29.0186884 13.0963259,28.849151 12.677054,29.1468683 L11.4329611,30.0286512 C11.0154013,30.3253311 10.875644,30.973492 11.1208646,31.4779548 C11.2846347,31.813928 11.5778634,32 11.8788096,32 Z" id="Shape"></path>
                <path d="M14.0908192,35 C14.3891869,35 14.6864853,34.882092 14.9017282,34.6493896 L15.7201007,33.7671604 C16.1228927,33.3327657 16.0866661,32.6625655 15.6391145,32.2716145 C15.191563,31.8817014 14.5021332,31.9147978 14.0982718,32.3502198 L13.2798993,33.2324491 C12.8771073,33.6668438 12.9133339,34.337044 13.3608855,34.7279949 C13.5697451,34.9100201 13.8308168,35 14.0908192,35 Z" id="Shape"></path>
                <path d="M15.8989418,30 C15.9358531,30 15.9736371,29.998202 16.0105394,29.9927986 L17.210901,29.8397162 C17.7047573,29.7766834 18.0544961,29.3165509 17.9929834,28.8113937 C17.9323526,28.3062365 17.4745256,27.9334427 16.9894606,28.0099839 L15.789099,28.1630664 C15.2952427,28.2260992 14.9455039,28.6862316 15.0070166,29.1913889 C15.0632562,29.6587227 15.4516609,30 15.8989418,30 Z" id="Shape"></path>
                <path d="M19.9410556,25 L19.0589444,25 C18.4736341,25 18,25.44727 18,26 C18,26.55273 18.4736341,27 19.0589444,27 L19.9410556,27 C20.5263659,27 21,26.55273 21,26 C21,25.44727 20.5263659,25 19.9410556,25 Z" id="Shape"></path>
                <path d="M15.5390048,36.8392616 C15.7317743,36.9477613 15.9472089,37 16.1603909,37 C16.5447804,37 16.9201131,36.8312272 17.1412255,36.5228049 L17.8181713,35.5794735 C18.1628852,35.1002724 18.0029987,34.4643552 17.4609869,34.1599552 C16.921251,33.8565633 16.2023539,33.9972107 15.8587778,34.4764119 L15.1818321,35.4197432 C14.8371181,35.8989444 14.996993,36.5348616 15.5390048,36.8392616 Z" id="Shape"></path>
                <path d="M17.529589,37.8683944 C17.7053461,37.9576329 17.8992211,38 18.0898891,38 C18.4605793,38 18.8216924,37.8404542 19.0262133,37.5520073 L19.8442971,36.3982197 C20.1542745,35.9610449 19.9870364,35.3940644 19.470411,35.1317577 C18.9527167,34.869451 18.2826951,35.01097 17.9737867,35.4481447 L17.1557029,36.6019324 C16.8457255,37.0391072 17.0129636,37.6060877 17.529589,37.8683944 Z" id="Shape"></path>
                <path d="M16.9000951,33 C16.9888696,33 17.0794082,32.9878798 17.1690647,32.9620263 L18.3688744,32.6170446 C18.8426472,32.4805046 19.1072154,32.0167537 18.958667,31.5804778 C18.8101185,31.144202 18.3064632,30.901013 17.8309353,31.0383637 L16.6311256,31.3833454 C16.1573528,31.5198854 15.8927846,31.9836363 16.041333,32.4199121 C16.1617541,32.7737792 16.516861,33 16.9000951,33 Z" id="Shape"></path>
                <path d="M21.0575103,35 C21.3748977,35 21.6891938,34.8698729 21.8969989,34.6210177 L22.7799033,33.567658 C23.1365777,33.1421357 23.050773,32.5313969 22.5876076,32.2037107 C22.1234047,31.8731747 21.458638,31.9539024 21.1030011,32.3803779 L20.2200967,33.4337376 C19.8634223,33.8592599 19.949227,34.4699986 20.4123924,34.7976848 C20.6046881,34.9344647 20.8321314,35 21.0575103,35 Z" id="Shape"></path>
                <path d="M20.3303904,29.987852 L22.0445836,29.7656869 C22.6673157,29.6849788 23.0880587,29.2267589 22.98427,28.743381 C22.8816013,28.2591322 22.2912217,27.9302213 21.6696096,28.0126623 L19.9554164,28.2348273 C19.3326843,28.3155355 18.9119413,28.7737554 19.01573,29.2571333 C19.1083535,29.6919192 19.5927045,30 20.1417835,30 C20.204283,30 20.2667824,29.9965253 20.3303904,29.987852 Z" id="Shape"></path>
                <path d="M20.5955156,38.8909069 C20.7635684,38.9648328 20.9447914,39 21.1238213,39 C21.5258119,39 21.914621,38.8223821 22.1167184,38.5113154 L22.8668826,37.3572332 C23.1601371,36.9073258 22.9525511,36.3483161 22.4044844,36.1084793 C21.8597018,35.8695474 21.1754451,36.0381542 20.8832816,36.4880616 L20.1331174,37.6421438 C19.8398629,38.0920604 20.0474489,38.6510702 20.5955156,38.8909069 Z" id="Shape"></path>
                <path d="M24.3295852,37.0861443 C23.7489319,36.8715738 23.058268,37.0717239 22.7860926,37.5324201 L22.1090392,38.6864223 C21.8379903,39.148928 22.0897616,39.6979745 22.6704148,39.9134498 C22.8291887,39.9720547 22.9958942,40 23.1603352,40 C23.5980898,40 24.0165666,39.8025548 24.2139074,39.4671741 L24.8909608,38.3131718 C25.1620097,37.8506754 24.9102384,37.3016196 24.3295852,37.0861443 Z" id="Shape"></path>
                <path d="M22.9727672,36 C23.2216607,36 23.4705542,35.9049693 23.6605463,35.7149178 L24.7150118,34.6610661 C25.0949961,34.2819068 25.0949961,33.6651806 24.7150118,33.2850774 C24.3350276,32.9049742 23.7194379,32.9049742 23.3394537,33.2850774 L22.2849882,34.3389291 C21.9050039,34.7180884 21.9050039,35.3348146 22.2849882,35.7149178 C22.4749803,35.9049693 22.7238738,36 22.9727672,36 Z" id="Shape"></path>
                <path d="M26.3637633,38.0279323 C25.9215904,37.895603 25.4729528,38.245707 25.3670574,38.8188034 L25.0226927,40.6860535 C24.9167974,41.2591499 25.1916385,41.8343269 25.6362367,41.9708282 C25.7009013,41.9906211 25.764763,42 25.8286247,42 C26.2028964,42 26.5424022,41.6696888 26.6329426,41.1799571 L26.9773073,39.3127071 C27.0832026,38.7396107 26.8083615,38.1644336 26.3637633,38.0279323 Z" id="Shape"></path>
                <path d="M29,42 C29.55273,42 30,41.5121121 30,40.9091871 L30,39.0908129 C30,38.4878879 29.55273,38 29,38 C28.44727,38 28,38.4878879 28,39.0908129 L28,40.9091871 C28,41.512123 28.44727,42 29,42 Z" id="Shape"></path>
                <path d="M25.5135,37.849599 C25.6751593,37.9520462 25.8528786,38 26.0275853,38 C26.3820266,38 26.7274199,37.8005627 26.918197,37.4431022 L27.8610192,35.6764899 C28.146172,35.1435634 27.9784979,34.460247 27.4864977,34.1518228 C26.9965127,33.8401287 26.3659563,34.0243106 26.0818008,34.5583307 L25.1389786,36.324943 C24.8538257,36.8578584 25.0215101,37.5411859 25.5135,37.849599 Z" id="Shape"></path>
                <path d="M29.3725568,34.0319735 C28.9288868,33.8881616 28.4803674,34.2428919 28.3688395,34.8266478 L28.0245656,36.6450112 C27.9146597,37.2298252 28.1837681,37.8221004 28.6274464,37.9680394 C28.6945186,37.9893428 28.7624102,38 28.8286715,38 C29.1996088,38 29.5366087,37.6687112 29.6311637,37.173376 L29.9754376,35.3550126 C30.0853352,34.7701768 29.8162268,34.1779125 29.3725568,34.0319735 Z" id="Shape"></path>
                <path d="M23.1441572,32 C23.3159942,32 23.4900592,31.9627121 23.6540922,31.8849399 L25.368006,31.0667447 C25.9326148,30.7972093 26.1613652,30.1420095 25.8790608,29.6029388 C25.5956366,29.0638681 24.9094083,28.8465337 24.3459078,29.1149999 L22.631994,29.9331952 C22.0673852,30.2027305 21.8386348,30.8579303 22.1209392,31.397001 C22.3217871,31.7794691 22.7246025,32 23.1441572,32 Z" id="Shape"></path>
                <path d="M24.9842747,26.0810427 L23.1177959,26.0013573 C22.5428565,25.9732308 22.0293615,26.3857113 22.0012364,26.9144321 C21.9731112,27.4440935 22.428276,27.8940696 23.0157156,27.9193835 L24.8821943,27.9990688 C24.8999099,28 24.9165802,28 24.9342851,28 C25.4998495,28 25.9716846,27.5997109 25.9987646,27.0859845 C26.0268791,26.5563231 25.5717142,26.106347 24.9842747,26.0810427 Z" id="Shape"></path>
                <path d="M22.9302283,23.0012228 C22.4226251,22.974976 22.0299113,23.3743513 22.0016126,23.9021764 C21.9724622,24.4318735 22.3420225,24.8865648 22.8256205,24.917506 L24.0697717,24.998128 C24.08778,24.9990688 24.1057882,25 24.122936,25 C24.5842411,25 24.9709491,24.6062408 24.9983874,24.0971744 C25.0275378,23.5674772 24.6579775,23.112786 24.1743795,23.0818447 L22.9302283,23.0012228 Z" id="Shape"></path>
                <path d="M25.31728,17.8378694 L23.5503738,17.0874964 C22.9835721,16.8490947 22.3273877,17.1138667 22.0875789,17.6873538 C21.8488639,18.2608522 22.1148246,18.9200316 22.68272,19.1617409 L24.4496262,19.9121139 C24.5913239,19.9714359 24.7384795,20 24.8834475,20 C25.3183627,20 25.7325617,19.7418205 25.9124211,19.3122452 C26.1511361,18.7387694 25.8851754,18.0795787 25.31728,17.8378694 Z" id="Shape"></path>
                <path d="M23.9831106,14.1588988 L22.2690804,14.0047243 C21.6553319,13.9542314 21.0784122,14.313978 21.0069943,14.8206885 C20.9378046,15.327399 21.3897487,15.7836166 22.0168894,15.8404152 L23.7309196,15.9945897 C23.7733247,15.9981997 23.8157298,16 23.8581349,16 C24.4328264,16 24.9271755,15.651074 24.9930057,15.1786255 C25.0621954,14.6719243 24.6102513,14.2157067 23.9831106,14.1588988 Z" id="Shape"></path>
                <path d="M20.1506579,10.5015798 C19.8675576,11.0085006 19.9952336,11.6836898 20.434677,12.0085143 L21.5402392,12.8264098 C21.6993676,12.944623 21.8760696,13 22.0518527,13 C22.3636296,13 22.668936,12.8232146 22.8493421,12.4994697 C23.1324424,11.9925489 23.0047664,11.3173598 22.565323,10.9925353 L21.4597608,10.1746397 C21.0175321,9.84661998 20.4328297,9.99464817 20.1506579,10.5015798 Z" id="Shape"></path>
                <path d="M19.4637309,6.19665139 C18.9606924,6.53113028 18.8497646,7.17396332 19.2155126,7.63297697 L19.9656671,8.57613132 C20.1853296,8.85335178 20.5280103,9 20.8761795,9 C21.105728,9 21.3374808,8.9357167 21.5362691,8.80312852 C22.0393076,8.46864964 22.1502354,7.82581659 21.7844874,7.36680295 L21.0343329,6.42364859 C20.6696871,5.9636167 19.9634628,5.86318046 19.4637309,6.19665139 Z" id="Shape"></path>
                <path d="M21.5005974,5.15103667 C20.9945026,5.4331568 20.8474758,6.01959914 21.1735074,6.45989976 L21.9917778,7.56525938 C22.1995421,7.84646073 22.5511473,8 22.9102044,8 C23.1115752,8 23.3161428,7.95190176 23.4994026,7.84922652 C24.0054974,7.5671064 24.1525242,6.98066405 23.8264926,6.54036343 L23.0082222,5.43500382 C22.6843181,4.99564091 22.0088196,4.86706953 21.5005974,5.15103667 Z" id="Shape"></path>
                <path d="M24.6884195,9.31669596 C24.34439,8.93551317 23.737894,8.89306594 23.3357423,9.21852486 C22.9326596,9.54399283 22.8857875,10.1153142 23.2316888,10.494731 L24.3115805,11.6833801 C24.5009407,11.8929899 24.7699729,12 25.0399459,12 C25.2611749,12 25.483335,11.9283641 25.6642577,11.7815512 C26.0673404,11.4560832 26.1142125,10.8847619 25.7683112,10.5053451 L24.6884195,9.31669596 Z" id="Shape"></path>
                <path d="M25.0084307,5.02342471 L25.1766543,6.22185251 C25.2392926,6.67291623 25.6321197,7 26.0831135,7 C26.1242738,7 26.1663319,6.99736194 26.2083901,6.99120346 C26.7094965,6.92437853 27.0602654,6.4698034 26.9913596,5.97741304 L26.8240248,4.77898523 C26.756017,4.28659486 26.2933953,3.93665088 25.792289,4.00963429 C25.291201,4.07646821 24.9404321,4.53104334 25.0084307,5.02342471 Z" id="Shape"></path>
                <path d="M28.2199501,4.73649576 L28.0118221,5.98171863 C27.9322406,6.45959544 28.2627989,6.91006704 28.7516425,6.98886252 C28.8006164,6.99657106 28.8487128,7 28.8968091,7 C29.327939,7 29.7074622,6.69426302 29.7800499,6.26433876 L29.9881779,5.01911589 C30.0677594,4.54123907 29.7372011,4.09076748 29.2483575,4.011972 C28.7586362,3.93232586 28.3004002,4.25861895 28.2199501,4.73649576 Z" id="Shape"></path>
                <path d="M31.3637562,5.65280149 L31.0481006,6.69387351 C30.893564,7.20388611 31.1237233,7.76365461 31.5618616,7.94450229 C31.6547485,7.98182411 31.7492853,8 31.8421722,8 C32.1890651,8 32.513761,7.74833983 32.6362438,7.34646153 L32.9518994,6.30538952 C33.106436,5.79537692 32.8762767,5.23560842 32.4381384,5.05476074 C31.9975337,4.8777442 31.5191177,5.14374913 31.3637562,5.65280149 Z" id="Shape"></path>
                <path d="M33.7899657,8.94617664 C33.9258786,8.98263963 34.0641432,9 34.2000562,9 C34.6898132,9 35.1502831,8.77603971 35.3272052,8.41492097 L35.9271035,7.19267291 C36.154405,6.73085871 35.8321996,6.22130127 35.210033,6.05375995 C34.5855268,5.88621863 33.8989312,6.12320142 33.6727935,6.58502451 L33.0728952,7.80727257 C32.8455937,8.26907789 33.1678111,8.77864421 33.7899657,8.94617664 Z" id="Shape"></path>
                <path d="M36.5107546,9.91546328 C36.6184715,9.97351774 36.7311226,10 36.8421233,10 C37.1685664,10 37.479382,9.76369354 37.6158785,9.36746093 L37.9316281,8.45481901 C38.1149903,7.92617509 37.9168258,7.31299446 37.4892502,7.08585614 C37.0649584,6.8566735 36.5674885,7.1021481 36.3841263,7.63384806 L36.0683766,8.54648998 C35.8850061,9.0751339 36.0831706,9.68831453 36.5107546,9.91546328 Z" id="Shape"></path>
                <path d="M41.4428132,8.12798985 C40.9109158,7.86522511 40.2264226,8.02049432 39.9179609,8.47068474 L39.1506294,9.58788177 C38.8410851,10.0371502 39.0241955,10.6132005 39.5571868,10.8732087 C39.7326741,10.9595739 39.9255952,11 40.115246,11 C40.5000056,11 40.8749433,10.8318701 41.0820391,10.5305232 L41.8493706,9.4133262 C42.1589149,8.96404836 41.9758045,8.38798864 41.4428132,8.12798985 Z" id="Shape"></path>
                <path d="M28.1495956,8.67617777 C27.916356,8.12008332 27.263479,7.85422743 26.6956367,8.08089531 C26.1245131,8.30651108 25.8498554,8.93991861 26.0830951,9.49388718 L26.8504044,11.3242156 C27.0269692,11.7457823 27.4433251,12 27.8836546,12 C28.0242592,12 28.1670401,11.9745761 28.3043633,11.9194981 C28.8754869,11.6938823 29.1501446,11.0604748 28.9169049,10.5065062 L28.1495956,8.67617777 Z" id="Shape"></path>
                <path d="M26.9151634,15 C27.3833366,15 27.8154998,14.66262 27.9553096,14.1413213 C28.1247843,13.5063871 27.7974839,12.8386565 27.2233958,12.6500596 L25.3930691,12.0502729 C24.817918,11.8605004 24.2152172,12.2248228 24.0446904,12.859745 C23.8752157,13.4946793 24.2025161,14.1624098 24.7766042,14.3510068 L26.6069309,14.9507935 C26.7096787,14.9847654 26.8134786,15 26.9151634,15 Z" id="Shape"></path>
                <path d="M28.2927971,15.7899684 L26.5001194,15.075617 C25.9312945,14.851265 25.2924283,15.1425832 25.0737327,15.7319287 C24.855037,16.3212743 25.1394495,16.9831637 25.7072043,17.2097445 L27.4998819,17.9240959 C27.6302344,17.9754377 27.7649004,18 27.896345,18 C28.3391309,18 28.7571282,17.7220773 28.9262687,17.2677956 C29.1449643,16.6784386 28.8605408,16.0165492 28.2927971,15.7899684 Z" id="Shape"></path>
                <path d="M28.0201732,13.2397778 L28.3790956,15.2082446 C28.4656226,15.6795285 28.8037152,16 29.1786599,16 C29.2387455,16 29.2996352,15.9920652 29.3605248,15.9751999 C29.8019706,15.8511788 30.0791736,15.3074655 29.9798238,14.7597898 L29.6209015,12.791323 C29.520756,12.2446328 29.0793101,11.9033337 28.6394723,12.0243779 C28.1980347,12.1483887 27.9208317,12.6921021 28.0201732,13.2397778 Z" id="Shape"></path>
                <path d="M30.057887,11 C30.0918833,11 30.1277239,10.9981275 30.1626424,10.9943728 C30.6790615,10.9352963 31.0512148,10.460783 30.9942405,9.93375189 L30.8766224,8.85343565 C30.8196481,8.32734566 30.3583685,7.95317213 29.8373576,8.00474883 C29.3209385,8.06382532 28.9487852,8.53833862 29.0057595,9.06536969 L29.1233776,10.1456859 C29.1766728,10.637081 29.5846573,11 30.057887,11 Z" id="Shape"></path>
                <path d="M25.9472523,33 C26.2007569,33 26.4533329,32.9017447 26.640226,32.7070526 L27.7449099,31.5532801 C28.1020313,31.1801039 28.0816812,30.5960089 27.699577,30.2480773 C27.3165443,29.901041 26.7179504,29.9199721 26.3599006,30.2931482 L25.2542977,31.4469207 C24.8980953,31.8200969 24.9184549,32.4041919 25.3005591,32.7521235 C25.4837288,32.9179714 25.7150264,33 25.9472523,33 Z" id="Shape"></path>
                <path d="M31.3563053,29.095404 C30.8078035,28.8503008 30.1613212,29.0932761 29.9142212,29.6431516 L29.0962618,31.461178 C28.8491727,32.009995 29.0941351,32.6568489 29.6436947,32.904091 C29.788539,32.9690961 29.940843,33 30.0899515,33 C30.506391,33 30.9036466,32.7612914 31.0857788,32.3563434 L31.9037382,30.538317 C32.1508273,29.9895 31.9058649,29.3426461 31.3563053,29.095404 Z" id="Shape"></path>
                <path d="M28.122936,29 C28.5842411,29 28.9709491,28.606166 28.9983874,28.0970027 C29.0275378,27.5672049 28.6579775,27.1124272 28.1743795,27.0814801 L26.9302283,27.0008428 C26.4311946,26.9792768 26.0299113,27.3740423 26.0016126,27.9019677 C25.9724622,28.4317655 26.3420225,28.8865432 26.8256205,28.9174903 L28.0697717,28.9981276 C28.08778,28.9990686 28.1057882,29 28.122936,29 Z" id="Shape"></path>
                <path d="M26.8610098,25.9174614 L28.0146133,25.998127 C28.0362456,25.9990683 28.0569736,26 28.0777015,26 C28.5589664,26 28.9645365,25.6116563 28.9978803,25.1041872 C29.0321284,24.5742032 28.6472956,24.1164514 28.1389902,24.080806 L26.9853867,24.0001403 C26.4653607,23.9916973 26.0363679,24.3650278 26.0021197,24.8940705 C25.9678716,25.4240641 26.3527044,25.8818256 26.8610098,25.9174614 Z" id="Shape"></path>
                <path d="M30.458973,28.0424149 L31.6589996,28.8604628 C31.7986779,28.9552582 31.949781,29 32.0991298,29 C32.4136332,29 32.7193477,28.7997528 32.8845113,28.4439783 C33.1278576,27.9188461 32.9741188,27.2541876 32.5410143,26.9580761 L31.3409878,26.1400282 C30.906129,25.8449747 30.3588224,26.0313805 30.115485,26.5565127 C29.8721477,27.081645 30.0258775,27.7463034 30.458973,28.0424149 Z" id="Shape"></path>
                <path d="M29.9987636,22.0858782 C30.0268889,21.5561552 29.5717229,21.1061267 28.984282,21.0808099 L27.1177987,21.0011153 C26.5386876,20.9757985 26.0293616,21.3845731 26.0012364,21.9142962 C25.9731111,22.4440193 26.4282771,22.8940477 27.015718,22.9193645 L28.8822013,22.9990591 C28.8999063,23 28.9165766,23 28.9342816,23 C29.499858,23 29.9716836,22.5996643 29.9987636,22.0858782 Z" id="Shape"></path>
                <path d="M26.9222574,21 C26.9429868,21 26.9637162,20.9990589 26.9844457,20.9981274 L28.1381311,20.9184143 C28.6464726,20.8827782 29.0313329,20.4251457 28.9979868,19.896241 C28.9646406,19.3663952 28.5139834,18.971594 28.0155543,19.0016029 L26.8618689,19.081316 C26.3535274,19.1169521 25.9686671,19.5745846 26.0020132,20.1034893 C26.0344549,20.6108165 26.4400445,21 26.9222574,21 Z" id="Shape"></path>
                <path d="M30.2223571,17.3248125 C29.895478,17.7188794 29.9332606,18.317368 30.3075951,18.661478 L31.5079092,19.7659677 C31.6783762,19.923227 31.8892711,20 32.1001571,20 C32.3505892,20 32.6001395,19.8908506 32.7776429,19.6762366 C33.104522,19.2821697 33.0667394,18.683681 32.6924049,18.3395711 L31.4920908,17.2350813 C31.1186381,16.8900431 30.5483544,16.9288985 30.2223571,17.3248125 Z" id="Shape"></path>
                <path d="M31.0049439,21.8377972 C30.948691,22.3446258 31.3789566,22.7947519 31.9654883,22.8424572 L33.8324046,22.9955014 C33.8667879,22.9991058 33.9011605,23 33.9344983,23 C34.4783257,23 34.9429638,22.642602 34.9950561,22.1654843 C35.051309,21.6586557 34.6210434,21.2085296 34.0345117,21.1608243 L32.1675954,21.0077801 C31.5716863,20.939361 31.0601619,21.3309594 31.0049439,21.8377972 Z" id="Shape"></path>
                <path d="M34.0011709,26 C34.5159217,26 34.9535073,25.6353481 34.9964857,25.1545544 C35.0423947,24.6467468 34.6331346,24.2010621 34.083217,24.1596468 L32.0828255,24.0065798 C31.5202154,23.9435534 31.0484431,24.3415164 31.0035143,24.8484297 C30.9576053,25.3562373 31.3668654,25.801922 31.916783,25.8433373 L33.9171745,25.9964043 C33.94549,25.9990965 33.9738156,26 34.0011709,26 Z" id="Shape"></path>
                <path d="M31.1594188,9.99892586 L31.0052768,11.7670845 C30.9511946,12.3797302 31.31897,12.92915 31.8264783,12.9934586 C31.8589332,12.9978233 31.8913788,13 31.9238336,13 C32.3907734,13 32.7910036,12.5737612 32.8405812,12.0003638 L32.9947232,10.2322052 C33.0488054,9.61955951 32.68103,9.0701397 32.1735217,9.00583105 C31.6732317,8.94368797 31.2126056,9.38518624 31.1594188,9.99892586 Z" id="Shape"></path>
                <path d="M31.6525277,13.0240513 C31.2056647,13.1437211 30.9220353,13.6882037 31.0190057,14.2386704 L31.3632467,16.1952338 C31.4472838,16.6739027 31.790714,17 32.1713138,17 C32.2294927,17 32.2884825,16.9930153 32.3474723,16.9770647 C32.7943353,16.857395 33.0779647,16.3129123 32.9809943,15.7624457 L32.6367533,13.8058822 C32.5397829,13.2544149 32.0953444,12.9023903 31.6525277,13.0240513 Z" id="Shape"></path>
                <path d="M35.3284867,10.0188966 C34.8681854,9.92176083 34.4087239,10.2081434 34.3057815,10.6703873 L34.0203931,11.9566134 C33.9182906,12.4188487 34.2095322,12.8768996 34.6715133,12.9799006 C34.7342797,12.9932945 34.7962148,13 34.8581414,13 C35.2506543,13 35.6055022,12.7278517 35.6942185,12.3284185 L35.9796069,11.0421924 C36.0817094,10.5799399 35.7904678,10.121889 35.3284867,10.0188966 Z" id="Shape"></path>
                <path d="M34.9724753,22 C35.1401815,22 35.3098827,21.9563236 35.4675527,21.8647166 C35.9646353,21.5749731 36.1463985,20.9113185 35.8722421,20.3829473 L34.9292967,18.564562 C34.6561584,18.0361908 34.0305377,17.8455156 33.5324473,18.13527 C33.0353647,18.4250134 32.8536015,19.0886681 33.1277579,19.6170392 L34.0707033,21.4354245 C34.2574743,21.7965403 34.6099566,22 34.9724753,22 Z" id="Shape"></path>
                <path d="M37.2810165,16.9339586 C37.8738667,16.7486844 38.1561305,16.2348985 37.9124158,15.7871628 L37.2345509,14.5434348 C36.9908362,14.0939775 36.3084328,13.8829771 35.7189835,14.065669 C35.1261333,14.2509432 34.8438695,14.7647292 35.0875842,15.2124649 L35.7654491,16.4561929 C35.95022,16.7958593 36.3832442,17 36.8389266,17 C36.9862976,17.0000088 37.1370581,16.97856 37.2810165,16.9339586 Z" id="Shape"></path>
                <path d="M36.7782774,11.0607024 C36.1727867,11.2599078 35.8541575,11.882013 36.0650598,12.4508534 L36.741993,14.2692383 C36.9098068,14.7187759 37.3588276,15 37.8384666,15 C37.9654678,15 38.0947215,14.9808234 38.2217226,14.939285 C38.8272133,14.7400796 39.1458425,14.1179744 38.9349402,13.5491339 L38.258007,11.7307491 C38.0459669,11.1619086 37.3849059,10.863635 36.7782774,11.0607024 Z" id="Shape"></path>
                <path d="M41.5382616,12.905892 C41.6528314,12.9705194 41.7717294,13 41.8889033,13 C42.2334748,13 42.561551,12.7369389 42.7056276,12.2969826 L42.9278171,11.6200437 C43.121362,11.0304203 42.9121927,10.3478152 42.4617435,10.0949486 C42.0104232,9.84095574 41.4879312,10.114223 41.2943775,10.7038464 L41.0721879,11.3807853 C40.8786342,11.9704203 41.0878034,12.6530254 41.5382616,12.905892 Z" id="Shape"></path>
                <path d="M44.1412024,14.5236619 L44.8181256,13.5810292 C45.162828,13.101676 45.0029468,12.4655569 44.462091,12.1600518 C43.9212352,11.8565636 43.2035,11.9972557 42.8587976,12.4756004 L42.1818744,13.4182331 C41.837172,13.8975863 41.9970532,14.5337054 42.537909,14.8392105 C42.7317983,14.9477447 42.9472373,15 43.1604006,15 C43.5436509,15 43.9200973,14.8311736 44.1412024,14.5236619 Z" id="Shape"></path>
                <path d="M45.0274403,17 C45.319713,17 45.6099802,16.883165 45.8138656,16.6552045 L46.7569693,15.600869 C47.1235701,15.1914797 47.0693282,14.5769289 46.6354444,14.230227 C46.2015503,13.8825816 45.5527352,13.9348228 45.1861344,14.3451556 L44.2430307,15.3994911 C43.8764299,15.8088804 43.9306718,16.4234312 44.3645556,16.7701331 C44.5573952,16.9249599 44.7934205,17 45.0274403,17 Z" id="Shape"></path>
                <path d="M41.3884171,15.8840809 C41.9531068,15.6294362 42.1651514,15.0393908 41.8612619,14.5662084 L41.1843146,13.5124767 C40.8792872,13.0392942 40.1739968,12.8616112 39.6115829,13.1162558 C39.0468932,13.3709004 38.8348486,13.9609458 39.1387381,14.4341283 L39.8156854,15.48786 C40.0254542,15.8147181 40.4257287,16 40.8396115,16 C41.0255656,16 41.2137955,15.9629397 41.3884171,15.8840809 Z" id="Shape"></path>
                <path d="M40.3537907,19.8974273 C40.9096441,19.6371331 41.1540558,18.9665483 40.898836,18.3996429 L40.1147942,16.65811 C39.8585003,16.0911933 39.1999034,15.8441357 38.6462093,16.1022276 C38.0903559,16.3625218 37.8459442,17.0331067 38.101164,17.6000121 L38.8852058,19.341545 C39.072299,19.7562516 39.4735057,20 39.8931062,20 C40.0477418,20 40.2045591,19.9669084 40.3537907,19.8974273 Z" id="Shape"></path>
                <path d="M37.3792694,21.3699293 C37.5219104,21.7663662 37.8295773,22 38.1513495,22 C38.269941,22 38.3901884,21.9682816 38.5054595,21.9006228 C38.9317179,21.6511298 39.1183137,21.0083717 38.9217652,20.4649908 L38.6207306,19.6308829 C38.4258465,19.0875019 37.9232871,18.8485745 37.4945405,19.1001893 C37.0682821,19.3496823 36.8816863,19.9924404 37.0782348,20.5358214 L37.3792694,21.3699293 Z" id="Shape"></path>
                <path d="M41.3468142,18.3341424 C41.4807155,18.748759 41.8029186,19 42.1426896,19 C42.2489708,19 42.3560919,18.9762205 42.4607021,18.9245218 C42.90007,18.7073936 43.1143121,18.0911702 42.938565,17.5483604 L42.6531858,16.6664122 C42.4774387,16.1225648 41.9778174,15.8589046 41.5392979,16.0760328 C41.09993,16.2931609 40.8856879,16.9093844 41.061435,17.4521942 L41.3468142,18.3341424 Z" id="Shape"></path>
                <path d="M70.6959787,45.201646 C70.192197,44.8336888 69.5169325,44.9836844 69.1835538,45.5344443 C68.8491172,46.0863801 68.9843795,46.8305023 69.4860344,47.1984595 L70.3040213,47.7984419 C70.4904132,47.9343739 70.7002323,48 70.9079246,48 C71.260466,48 71.6066162,47.8125055 71.8164462,47.4656437 C72.1508828,46.9137078 72.0156205,46.1695857 71.5139656,45.8016285 L70.6959787,45.201646 Z" id="Shape"></path>
            </g>
        </g>
    </g>
</svg>